<?xml version="1.0" encoding="utf-8"?>
<!-- Generator: Adobe Illustrator 21.1.0, SVG Export Plug-In . SVG Version: 6.00 Build 0)  -->
<!DOCTYPE svg PUBLIC "-//W3C//DTD SVG 1.1//EN" "http://www.w3.org/Graphics/SVG/1.1/DTD/svg11.dtd">
<svg version="1.1" id="Layer_1" xmlns="http://www.w3.org/2000/svg" xmlns:xlink="http://www.w3.org/1999/xlink" x="0px" y="0px"
	 viewBox="0 0 42 42" enable-background="new 0 0 42 42" xml:space="preserve">
<g>
	<g>
		<path fill="#FFFFFF" d="M21.9,19L21.9,19C21.9,19,21.9,19,21.9,19L21.9,19z"/>
		<path fill="#FFFFFF" d="M35.9,2.8H5.2c-1.5,0-2.7,1.2-2.7,2.6v30.8c0,1.4,1.2,2.6,2.7,2.6h30.7c1.5,0,2.7-1.2,2.7-2.6V5.4
			C38.6,3.9,37.4,2.8,35.9,2.8z M13.5,32.9H8V16.7h5.4V32.9z M10.8,14.4L10.8,14.4c-1.9,0-3-1.2-3-2.8c0-1.6,1.2-2.8,3.1-2.8
			c1.9,0,3,1.2,3,2.8C13.8,13.2,12.7,14.4,10.8,14.4z M33.1,32.9h-5.4v-8.7c0-2.2-0.8-3.7-2.8-3.7c-1.5,0-2.4,1-2.8,2
			c-0.1,0.3-0.2,0.8-0.2,1.3v9.1h-5.4c0,0,0.1-14.7,0-16.3h5.4V19c0.7-1.1,2-2.7,4.9-2.7c3.6,0,6.3,2.3,6.3,7.3V32.9z"/>
	</g>
</g>
</svg>
