<?xml version="1.0" encoding="utf-8"?>
<!-- Generator: Adobe Illustrator 21.1.0, SVG Export Plug-In . SVG Version: 6.00 Build 0)  -->
<!DOCTYPE svg PUBLIC "-//W3C//DTD SVG 1.1//EN" "http://www.w3.org/Graphics/SVG/1.1/DTD/svg11.dtd">
<svg version="1.1" id="Layer_1" xmlns="http://www.w3.org/2000/svg" xmlns:xlink="http://www.w3.org/1999/xlink" x="0px" y="0px"
	 viewBox="0 0 42 42" enable-background="new 0 0 42 42" xml:space="preserve">
<g>
	<path fill="#FFFFFF" d="M24.2,24.4c-0.2,0-0.4,0.1-0.6,0.2c-0.2,0.1-0.4,0.3-0.6,0.5v-3h-1.4v9.4H23v-0.5c0.2,0.2,0.4,0.4,0.6,0.5
		c0.2,0.1,0.5,0.2,0.7,0.2c0.4,0,0.7-0.1,0.9-0.4c0.2-0.3,0.3-0.6,0.3-1.1v-3.8c0-0.6-0.1-1-0.3-1.3C25,24.5,24.6,24.4,24.2,24.4z
		 M24.1,29.8c0,0.2,0,0.4-0.1,0.5c-0.1,0.1-0.2,0.1-0.4,0.1c-0.1,0-0.2,0-0.3-0.1c-0.1,0-0.2-0.1-0.3-0.2v-4.3
		c0.1-0.1,0.2-0.2,0.3-0.2c0.1,0,0.2-0.1,0.3-0.1c0.2,0,0.3,0.1,0.4,0.2c0.1,0.1,0.1,0.3,0.1,0.5V29.8z"/>
	<polygon fill="#FFFFFF" points="11.2,23.4 12.8,23.4 12.8,31.4 14.3,31.4 14.3,23.4 16,23.4 16,22 11.2,22 	"/>
	<path fill="#FFFFFF" d="M19.1,29.7c-0.1,0.2-0.3,0.3-0.4,0.4c-0.2,0.1-0.3,0.1-0.4,0.1c-0.1,0-0.2,0-0.3-0.1C18,30,18,29.9,18,29.8
		v-5.3h-1.4v5.8c0,0.4,0.1,0.7,0.2,0.9c0.2,0.2,0.4,0.3,0.7,0.3c0.3,0,0.5-0.1,0.8-0.2c0.3-0.1,0.5-0.4,0.8-0.6v0.8h1.4v-6.9h-1.4
		V29.7z"/>
	<path fill="#FFFFFF" d="M20.8,16.7c0.2,0,0.4-0.1,0.5-0.2c0.1-0.1,0.2-0.3,0.2-0.5v-4.2c0-0.2-0.1-0.3-0.2-0.4
		c-0.1-0.1-0.3-0.2-0.5-0.2c-0.2,0-0.3,0-0.5,0.2c-0.1,0.1-0.2,0.2-0.2,0.4V16c0,0.2,0.1,0.4,0.2,0.5C20.4,16.6,20.6,16.7,20.8,16.7
		z"/>
	<path fill="#FFFFFF" d="M36.3,2.6H5.7C4.2,2.6,3,3.7,3,5.1V36c0,1.4,1.2,2.6,2.7,2.6h30.7c1.5,0,2.7-1.2,2.7-2.6V5.1
		C39,3.7,37.8,2.6,36.3,2.6z M24.3,10.2h1.6V16c0,0.2,0,0.3,0.1,0.4c0.1,0.1,0.2,0.1,0.3,0.1c0.1,0,0.3-0.1,0.4-0.2
		c0.2-0.1,0.3-0.2,0.5-0.4v-5.8h1.6v7.6h-1.6V17c-0.3,0.3-0.6,0.5-0.9,0.7c-0.3,0.2-0.6,0.2-0.9,0.2c-0.4,0-0.6-0.1-0.8-0.3
		c-0.2-0.2-0.3-0.6-0.3-1V10.2z M18.5,11.9c0-0.6,0.2-1.1,0.6-1.4c0.4-0.3,1-0.5,1.7-0.5c0.6,0,1.2,0.2,1.6,0.6
		c0.4,0.4,0.6,0.8,0.6,1.4v3.9c0,0.7-0.2,1.2-0.6,1.5c-0.4,0.4-1,0.6-1.7,0.6c-0.7,0-1.2-0.2-1.6-0.6c-0.4-0.4-0.6-0.9-0.6-1.5V11.9
		z M22.4,18.7L22.4,18.7L22.4,18.7C22.3,18.8,22.3,18.8,22.4,18.7z M14.3,7.5l1.1,4.1h0.1l1.1-4.1h1.8l-2,6.1v4.3h-1.8v-4.1
		l-2.1-6.2H14.3z M34.7,29.2c0,2.8-2.2,5-5,5H12.3c-2.8,0-5-2.2-5-5v-4c0-2.8,2.2-5,5-5h17.4c2.8,0,5,2.2,5,5V29.2z"/>
	<path fill="#FFFFFF" d="M28.4,24.3c-0.6,0-1.1,0.2-1.5,0.6c-0.4,0.4-0.6,0.9-0.6,1.5v3.1c0,0.7,0.2,1.2,0.5,1.6
		c0.4,0.4,0.8,0.6,1.5,0.6c0.7,0,1.2-0.2,1.6-0.5c0.4-0.4,0.5-0.9,0.5-1.6v-0.4h-1.4v0.3c0,0.4,0,0.7-0.1,0.8
		c-0.1,0.1-0.3,0.2-0.5,0.2c-0.2,0-0.4-0.1-0.5-0.2c-0.1-0.1-0.1-0.4-0.1-0.8v-1.3h2.6v-1.8c0-0.7-0.2-1.2-0.5-1.5
		C29.5,24.5,29,24.3,28.4,24.3z M28.9,27h-1.2v-0.7c0-0.3,0-0.5,0.1-0.6c0.1-0.1,0.3-0.2,0.5-0.2c0.2,0,0.4,0.1,0.5,0.2
		c0.1,0.1,0.1,0.3,0.1,0.6V27z"/>
	<path fill="#FFFFFF" d="M22.4,18.7C22.3,18.8,22.3,18.8,22.4,18.7L22.4,18.7L22.4,18.7z"/>
</g>
</svg>
