<svg xmlns="http://www.w3.org/2000/svg" width="78.497" height="71.384" viewBox="0 0 78.497 71.384">
  <g id="Group_54" data-name="Group 54" transform="translate(-208.503 -1308.884)">
    <g id="Group_53" data-name="Group 53">
      <g id="Group_51" data-name="Group 51">
        <g id="Group_50" data-name="Group 50">
          <path id="Path_103" data-name="Path 103" d="M225.186,1342.161a16.675,16.675,0,0,0,16.683-16.682,18.365,18.365,0,0,0-1.4-6.849,1.592,1.592,0,0,0-2.9,1.317,13.278,13.278,0,0,1,1.142,5.532,13.478,13.478,0,1,1-13.522-13.434,13.242,13.242,0,0,1,6.146,1.492,1.419,1.419,0,0,0,1.142.527H281.2v22.829H242.483a1.581,1.581,0,0,0,0,3.161h40.3a1.574,1.574,0,0,0,1.581-1.58v-25.99a1.575,1.575,0,0,0-1.581-1.581H233.176a16.865,16.865,0,0,0-7.99-2.019,16.639,16.639,0,1,0,0,33.277Z" fill="#20244e"/>
          <path id="Path_104" data-name="Path 104" d="M285.6,1356.825a1.591,1.591,0,1,0-2.9,1.317,13.292,13.292,0,0,1,1.141,5.531,13.434,13.434,0,1,1-13.434-13.434,14.361,14.361,0,0,1,6.585,1.669,1.612,1.612,0,0,0,1.581-2.81,16.4,16.4,0,0,0-8.166-2.107,16.645,16.645,0,0,0-12.117,28.1H214.649v-22.829H252.4a1.581,1.581,0,1,0,0-3.161H213.069a1.574,1.574,0,0,0-1.581,1.58v25.99a1.575,1.575,0,0,0,1.581,1.581h48.819c.088,0,.263-.088.351-.088A16.653,16.653,0,0,0,287,1363.586,16.09,16.09,0,0,0,285.6,1356.825Z" fill="#20244e"/>
          <path id="Path_105" data-name="Path 105" d="M221.5,1358.932h16.156a1.581,1.581,0,1,0,0-3.161H221.5a1.581,1.581,0,0,0,0,3.161Z" fill="#20244e"/>
          <path id="Path_106" data-name="Path 106" d="M243.1,1358.932a1.581,1.581,0,0,0,0-3.161h-.615a1.581,1.581,0,0,0,0,3.161Z" fill="#20244e"/>
          <path id="Path_107" data-name="Path 107" d="M221.5,1364.99h8.429a1.58,1.58,0,1,0,0-3.16H221.5a1.58,1.58,0,0,0,0,3.16Z" fill="#20244e"/>
          <path id="Path_108" data-name="Path 108" d="M248.278,1363.322a1.573,1.573,0,0,0-1.58-1.58H234.4a1.581,1.581,0,0,0,0,3.161H246.61A1.543,1.543,0,0,0,248.278,1363.322Z" fill="#20244e"/>
          <path id="Path_109" data-name="Path 109" d="M221.849,1371.488h17.122a1.581,1.581,0,1,0,0-3.161H221.849a1.581,1.581,0,0,0,0,3.161Z" fill="#20244e"/>
          <path id="Path_110" data-name="Path 110" d="M245.381,1368.327h-1.493a1.581,1.581,0,0,0,0,3.161h1.493a1.581,1.581,0,0,0,0-3.161Z" fill="#20244e"/>
          <path id="Path_111" data-name="Path 111" d="M264.171,1317.576H246.61a1.581,1.581,0,0,0,0,3.161h17.561a1.581,1.581,0,0,0,0-3.161Z" fill="#20244e"/>
          <path id="Path_112" data-name="Path 112" d="M270.4,1320.825a1.581,1.581,0,1,0,0-3.161h-.615a1.581,1.581,0,0,0,0,3.161Z" fill="#20244e"/>
          <path id="Path_113" data-name="Path 113" d="M246.7,1326.883h4.39a1.58,1.58,0,1,0,0-3.16H246.7a1.574,1.574,0,0,0-1.581,1.58A1.521,1.521,0,0,0,246.7,1326.883Z" fill="#20244e"/>
          <path id="Path_114" data-name="Path 114" d="M254.864,1325.215a1.574,1.574,0,0,0,1.58,1.581h17.824a1.581,1.581,0,1,0,0-3.161H256.532A1.65,1.65,0,0,0,254.864,1325.215Z" fill="#20244e"/>
          <path id="Path_115" data-name="Path 115" d="M247.049,1330.132a1.581,1.581,0,0,0,0,3.161h17.122a1.581,1.581,0,0,0,0-3.161Z" fill="#20244e"/>
          <path id="Path_116" data-name="Path 116" d="M272.951,1330.132h-3.073a1.581,1.581,0,0,0,0,3.161h3.073a1.581,1.581,0,1,0,0-3.161Z" fill="#20244e"/>
        </g>
      </g>
      <circle id="Ellipse_11" data-name="Ellipse 11" cx="1.493" cy="1.493" r="1.493" transform="translate(223.43 1330.308)" fill="#20244e"/>
      <path id="Path_117" data-name="Path 117" d="M230.1,1323.81a5.092,5.092,0,0,0-10.185,0,1.58,1.58,0,1,0,3.161,0,1.932,1.932,0,1,1,1.931,1.932,1.581,1.581,0,0,0,0,3.161A5.1,5.1,0,0,0,230.1,1323.81Z" fill="#20244e"/>
      <g id="Group_52" data-name="Group 52">
        <path id="Path_118" data-name="Path 118" d="M268.75,1370.327l-5.514-5.515a1.5,1.5,0,0,1,2.121-2.121l3.393,3.393,8.189-8.189a1.5,1.5,0,1,1,2.122,2.121Z" fill="#20244e"/>
      </g>
    </g>
  </g>
</svg>
