<svg xmlns="http://www.w3.org/2000/svg" width="100.253" height="78.391" viewBox="0 0 100.253 78.391">
  <g id="Group_49" data-name="Group 49" transform="translate(-669.802 -1302.393)">
    <g id="Group_48" data-name="Group 48">
      <path id="Path_102" data-name="Path 102" d="M737.127,1303.042l-8.35,8.347a1.671,1.671,0,0,0,0,2.356l30.07,30.082a1.669,1.669,0,0,0,2.365,0l8.351-8.35a1.672,1.672,0,0,0,0-2.369L739.5,1303.041c-.924-.924-1.565-.8-2.369,0Zm-36.753,0-30.079,30.066a1.67,1.67,0,0,0,0,2.369l8.36,8.351a1.672,1.672,0,0,0,2.356,0l30.08-30.083a1.672,1.672,0,0,0,0-2.356l-8.361-8.347a1.508,1.508,0,0,0-2.356,0Zm1.185,3.537,5.981,5.981-27.714,27.714-5.981-5.981Zm36.753,0,27.7,27.714-5.984,5.981-27.711-27.7Zm-26.1,11.522a1.686,1.686,0,0,0-.864,3.185l5.051,2.721-3.948,2.128a1.674,1.674,0,0,0-.389.29l-8.353,8.354a6.4,6.4,0,0,0,9.045,9.045l5.684-5.684a12.484,12.484,0,0,0,8.171,2.832,14.455,14.455,0,0,0,9.535-3.831,1.671,1.671,0,1,0-2.362-2.362,10.445,10.445,0,0,1-14.345,0,1.672,1.672,0,0,0-2.363,0l-6.682,6.683a3.055,3.055,0,0,1-4.321-4.321l8.181-8.18,14.273-7.685a1.672,1.672,0,1,0-1.586-2.943l-7.013,3.775-6.993-3.762a1.82,1.82,0,0,0-.721-.245Zm27.747,21.184a1.671,1.671,0,0,0-1.165,2.869l10.024,10.024a3.055,3.055,0,0,1-4.32,4.32l-1.671-1.67a1.67,1.67,0,1,0-2.362,2.362l1.67,1.671a3.055,3.055,0,0,1-4.32,4.32l-1.671-1.671a1.671,1.671,0,1,0-2.362,2.363l1.67,1.671a3.055,3.055,0,0,1-4.32,4.32l-1.671-1.671a1.671,1.671,0,1,0-2.362,2.363l1.67,1.671a3.057,3.057,0,0,1-3.22,5.028,1.671,1.671,0,1,0-1.162,3.133,29.051,29.051,0,0,1,13.428-8.161,6.3,6.3,0,0,1,6.683-6.683,6.3,6.3,0,0,1,6.683-6.683,6.419,6.419,0,0,0,0-9.045l-2.161-2.161,3.28-3.279a1.671,1.671,0,1,0-2.363-2.363l-3.279,3.28-5.5-5.5A1.67,1.67,0,0,0,739.963,1339.285Zm-52.4,5.094,3.273,3.273-2.166,2.167a146.325,146.325,0,0,1,6.686,15.725,6.3,6.3,0,0,1,6.683,6.686,6.3,6.3,0,0,1,6.686,6.683,6.427,6.427,0,0,0,9.052,0l3.328-3.342a6.426,6.426,0,0,0,0-9.051,6.352,6.352,0,0,0-4.513-1.864c-.109,0-.217.025-.326.032a6.322,6.322,0,0,0-6.357-6.716c-.109,0-.217.026-.326.032a6.353,6.353,0,0,0-6.36-6.716l-.323.032a6.35,6.35,0,0,0-9.522-5.851l-3.452-3.452A1.671,1.671,0,1,0,687.563,1344.379Zm8.974,3.541a3.079,3.079,0,0,1,2.16,5.244l-3.341,3.328a3.053,3.053,0,0,1-4.317-4.317l3.341-3.342A3.043,3.043,0,0,1,696.537,1347.92Zm6.686,6.686a3.041,3.041,0,0,1,2.157.913,3.005,3.005,0,0,1,0,4.314l-3.341,3.345a3.053,3.053,0,0,1-4.318-4.317l3.345-3.342A3.043,3.043,0,0,1,703.223,1354.606Zm6.686,6.683a3.041,3.041,0,0,1,2.157.913,3.009,3.009,0,0,1,0,4.317l-3.341,3.342a3.053,3.053,0,0,1-4.317-4.317l3.341-3.342A3.045,3.045,0,0,1,709.909,1361.289Zm6.683,6.686a3.042,3.042,0,0,1,2.157.913,3.005,3.005,0,0,1,0,4.314l-3.341,3.345a3.053,3.053,0,0,1-4.317-4.317l3.344-3.342A3.039,3.039,0,0,1,716.592,1367.975Z" fill="#20244e"/>
    </g>
  </g>
</svg>
