<svg xmlns="http://www.w3.org/2000/svg" width="87.047" height="83.88" viewBox="0 0 87.047 83.88">
  <g id="Group_70" data-name="Group 70" transform="translate(-1108.175 -1298.221)">
    <g id="Group_55" data-name="Group 55">
      <path id="Path_119" data-name="Path 119" d="M1154.884,1382.1a1.491,1.491,0,0,1-.7-.176l-45.209-24.036a1.5,1.5,0,0,1-.8-1.324v-29.082a1.5,1.5,0,0,1,.628-1.221l38.838-27.761a1.5,1.5,0,0,1,1.581-.1l45.209,24.265a1.5,1.5,0,0,1,.791,1.322v29.082a1.5,1.5,0,0,1-.633,1.224l-38.838,27.532A1.5,1.5,0,0,1,1154.884,1382.1Zm-43.709-26.438,43.6,23.179,37.451-26.548v-27.41l-43.6-23.4-37.451,26.769Z" fill="#20244e"/>
    </g>
    <g id="Group_56" data-name="Group 56">
      <path id="Path_120" data-name="Path 120" d="M1154.884,1355.691a1.5,1.5,0,0,1-.7-.176l-38.529-20.485a1.5,1.5,0,1,1,1.409-2.648l37.711,20.05,30.487-21.612a1.5,1.5,0,1,1,1.734,2.448l-31.241,22.146A1.5,1.5,0,0,1,1154.884,1355.691Z" fill="#20244e"/>
    </g>
    <g id="Group_57" data-name="Group 57">
      <path id="Path_121" data-name="Path 121" d="M1154.884,1375.031a1.5,1.5,0,0,1-1.5-1.5v-19.34a1.5,1.5,0,0,1,3,0v19.34A1.5,1.5,0,0,1,1154.884,1375.031Z" fill="#20244e"/>
    </g>
    <g id="Group_60" data-name="Group 60">
      <g id="Group_58" data-name="Group 58">
        <path id="Path_122" data-name="Path 122" d="M1130.51,1327.933c-5.485,0-9.781-2.956-9.781-6.73s4.3-6.729,9.781-6.729,9.78,2.956,9.78,6.729S1135.994,1327.933,1130.51,1327.933Zm0-10.459c-4,0-6.781,1.965-6.781,3.729s2.785,3.73,6.781,3.73,6.78-1.966,6.78-3.73S1134.506,1317.474,1130.51,1317.474Z" fill="#20244e"/>
      </g>
      <g id="Group_59" data-name="Group 59">
        <path id="Path_123" data-name="Path 123" d="M1130.51,1333.583c-5.485,0-9.781-2.956-9.781-6.73v-5.65a1.5,1.5,0,0,1,3,0v5.65c0,1.764,2.785,3.73,6.781,3.73s6.78-1.966,6.78-3.73v-5.65a1.5,1.5,0,0,1,3,0v5.65C1140.29,1330.627,1135.994,1333.583,1130.51,1333.583Z" fill="#20244e"/>
      </g>
    </g>
    <g id="Group_63" data-name="Group 63">
      <g id="Group_61" data-name="Group 61">
        <path id="Path_124" data-name="Path 124" d="M1149.54,1314.378c-5.483,0-9.779-2.956-9.779-6.729s4.3-6.73,9.779-6.73,9.78,2.956,9.78,6.73S1155.024,1314.378,1149.54,1314.378Zm0-10.459c-3.995,0-6.779,1.965-6.779,3.73s2.784,3.729,6.779,3.729,6.78-1.965,6.78-3.729S1153.536,1303.919,1149.54,1303.919Z" fill="#20244e"/>
      </g>
      <g id="Group_62" data-name="Group 62">
        <path id="Path_125" data-name="Path 125" d="M1149.54,1320.028c-5.483,0-9.779-2.956-9.779-6.73v-5.649a1.5,1.5,0,0,1,3,0v5.649c0,1.764,2.784,3.73,6.779,3.73s6.78-1.966,6.78-3.73v-5.649a1.5,1.5,0,0,1,3,0v5.649C1159.32,1317.072,1155.024,1320.028,1149.54,1320.028Z" fill="#20244e"/>
      </g>
    </g>
    <g id="Group_66" data-name="Group 66">
      <g id="Group_64" data-name="Group 64">
        <path id="Path_126" data-name="Path 126" d="M1152.7,1339.852c-5.483,0-9.779-2.956-9.779-6.73s4.3-6.73,9.779-6.73,9.78,2.956,9.78,6.73S1158.188,1339.852,1152.7,1339.852Zm0-10.46c-3.995,0-6.779,1.966-6.779,3.73s2.784,3.73,6.779,3.73,6.78-1.966,6.78-3.73S1156.7,1329.392,1152.7,1329.392Z" fill="#20244e"/>
      </g>
      <g id="Group_65" data-name="Group 65">
        <path id="Path_127" data-name="Path 127" d="M1152.7,1345.5c-5.483,0-9.779-2.956-9.779-6.729v-5.65a1.5,1.5,0,0,1,3,0v5.65c0,1.764,2.784,3.729,6.779,3.729s6.78-1.965,6.78-3.729v-5.65a1.5,1.5,0,0,1,3,0v5.65C1162.483,1342.545,1158.188,1345.5,1152.7,1345.5Z" fill="#20244e"/>
      </g>
    </g>
    <g id="Group_69" data-name="Group 69">
      <g id="Group_67" data-name="Group 67">
        <path id="Path_128" data-name="Path 128" d="M1171.734,1326.3c-5.484,0-9.78-2.956-9.78-6.729s4.3-6.73,9.78-6.73,9.781,2.956,9.781,6.73S1177.219,1326.3,1171.734,1326.3Zm0-10.459c-4,0-6.78,1.965-6.78,3.73s2.784,3.729,6.78,3.729,6.781-1.965,6.781-3.729S1175.73,1315.838,1171.734,1315.838Z" fill="#20244e"/>
      </g>
      <g id="Group_68" data-name="Group 68">
        <path id="Path_129" data-name="Path 129" d="M1171.734,1331.946c-5.484,0-9.78-2.956-9.78-6.729v-5.649a1.5,1.5,0,0,1,3,0v5.649c0,1.764,2.784,3.729,6.78,3.729s6.781-1.965,6.781-3.729v-5.649a1.5,1.5,0,0,1,3,0v5.649C1181.515,1328.99,1177.219,1331.946,1171.734,1331.946Z" fill="#20244e"/>
      </g>
    </g>
  </g>
</svg>
