<?xml version="1.0" encoding="utf-8"?>
<!-- Generator: Adobe Illustrator 24.1.0, SVG Export Plug-In . SVG Version: 6.00 Build 0)  -->
<svg version="1.1" id="Layer_1" xmlns="http://www.w3.org/2000/svg" xmlns:xlink="http://www.w3.org/1999/xlink" x="0px" y="0px"
	 viewBox="0 0 100 80" style="enable-background:new 0 0 100 80;" xml:space="preserve">
<style type="text/css">
	.st0{fill:#161B35;}
	.st1{fill:#EAEBEF;}
	.st2{fill:#20244E;}
	.st3{fill:#B72F00;}
	.st4{fill:#FFFFFF;}
	.st5{fill:none;stroke:#20244E;stroke-width:3;stroke-linejoin:round;stroke-miterlimit:10;}
	.st6{fill:none;stroke:#20244E;stroke-width:3;stroke-linecap:round;stroke-linejoin:round;stroke-miterlimit:10;}
	.st7{fill:none;stroke:#FFFFFF;stroke-width:2;stroke-linecap:round;stroke-miterlimit:10;}
	.st8{fill:none;stroke:#EB1C24;stroke-width:4;stroke-miterlimit:10;}
	.st9{fill:none;stroke:#20244E;stroke-miterlimit:10;}
	.st10{fill:#F9AE3B;}
	.st11{fill:none;stroke:#FFFFFF;stroke-width:2;stroke-miterlimit:10;}
	.st12{fill:none;stroke:#20244E;stroke-width:2;stroke-miterlimit:10;}
	.st13{fill:#1A1A1A;}
	.st14{opacity:0.5;fill:#FFFFFF;}
	.st15{fill:none;stroke:#FFFFFF;stroke-miterlimit:10;}
	.st16{fill:#009045;}
	.st17{filter:url(#Adobe_OpacityMaskFilter);}
	.st18{fill-rule:evenodd;clip-rule:evenodd;fill:#FFFFFF;}
	.st19{mask:url(#mask-2_1_);fill-rule:evenodd;clip-rule:evenodd;fill:#20244E;}
	.st20{fill:#FFFFFF;stroke:#20244E;stroke-miterlimit:10;}
	.st21{fill:#0071BA;}
	.st22{fill:#F3B52C;}
	.st23{fill:none;stroke:#20244E;stroke-width:2;stroke-linecap:round;stroke-miterlimit:10;}
	.st24{fill:none;stroke:#FAEC21;stroke-width:6;stroke-miterlimit:10;}
	.st25{fill:#B1B1B1;}
	.st26{opacity:0.6;fill:#333333;}
	.st27{opacity:0.4;fill:#333333;}
	.st28{fill-rule:evenodd;clip-rule:evenodd;fill:none;stroke:#20244E;stroke-width:3;stroke-miterlimit:10;}
</style>
<g>
	<path class="st2" d="M40.8,72.6c-0.1,0-0.3,0-0.4,0c-4.3-0.3-8.6-0.8-13.3-1.6c-3.1-0.5-6-2.7-5.6-6c0.5-4.2,0.9-8.9,1.2-14.6
		c0-0.9-0.4-1.7-1.2-2.1c-0.8-0.4-1.7-0.4-2.5,0.1c-1.5,1.1-3.4,1.7-5.3,1.7c-5.2,0-9.4-4.2-9.4-9.4c0-5.2,4.2-9.4,9.4-9.4
		c1.5,0,3,0.4,4.3,1c0.6,0.3,1.4,0.6,2.2,0.6c0.7,0.1,1.3-0.1,1.8-0.6c0.5-0.5,0.7-1.1,0.7-1.8c-0.2-4.5-0.6-9.4-1.2-15.7
		c-0.4-3.3,2.6-5.6,5.6-6c4.2-0.6,8.4-1.1,12.5-1.3v0c2.1-0.1,3.8,0.9,4.8,2.7c1.1,1.8,1,4-0.3,5.7c-0.7,1.1-1.1,2.3-1.1,3.6
		c0,3.5,2.9,6.4,6.4,6.4c3.5,0,6.4-2.9,6.4-6.4c0-1.1-0.2-2.1-0.7-2.9c-0.4-0.8-0.7-1.6-0.9-2.6c-0.4-1.8,0.1-3.4,1.1-4.7
		c1.1-1.3,2.7-2,4.4-1.9c4.4,0.3,9,0.7,13.7,1.3c2,0.3,3.7,1.2,4.8,2.6c0.8,1,1.1,2.2,0.9,3.5c-0.8,4.8-1.4,9.7-1.7,14.5
		c-0.1,0.9,0.3,1.7,1.1,2.2c0.8,0.5,1.7,0.4,2.5-0.1c1.6-1.1,3.4-1.6,5.3-1.6c5.2,0,9.4,4.2,9.4,9.4c0,5.2-4.2,9.4-9.4,9.4
		c-1.5,0-2.9-0.4-4.3-1c-0.7-0.4-1.5-0.6-2.4-0.7c-0.6,0-1.2,0.2-1.7,0.7c-0.4,0.4-0.6,1-0.6,1.8c0.3,5.4,1,10.5,1.9,15.6
		c0.2,1.2,0,2.3-0.7,3.3c-1,1.4-2.8,2.4-4.8,2.8c-3.8,0.7-7.7,1.1-11.5,1.5c-1.9,0.2-3.7-0.7-4.8-2.3c-1.1-1.7-1.1-3.7-0.3-5.4
		c0.4-0.7,0.6-1.7,0.6-3c0-3.5-2.9-6.4-6.4-6.4c-3.5,0-6.4,2.9-6.4,6.4c0,0.9,0.2,1.8,0.7,2.8c0.1,0.2,0.2,0.4,0.3,0.6
		c0.8,1.7,0.6,3.6-0.5,5.1C44.1,71.8,42.5,72.6,40.8,72.6z M20.4,44.9c0.9,0,1.8,0.2,2.6,0.7c1.8,1,2.8,2.8,2.7,4.9
		c-0.3,5.8-0.7,10.5-1.3,14.8c-0.2,1.6,1.8,2.5,3.1,2.7c4.6,0.7,8.8,1.2,13,1.5c0.8,0.1,1.6-0.3,2.1-1c0.5-0.7,0.6-1.5,0.2-2.3
		L42.7,66c-0.7-1.4-1-2.8-1-4.2c0-5.2,4.2-9.4,9.4-9.4c5.2,0,9.4,4.2,9.4,9.4c0,1.7-0.3,3.2-0.9,4.3c-0.4,0.8-0.3,1.6,0.1,2.4
		c0.3,0.5,1,1.1,2.1,1c3.7-0.3,7.5-0.8,11.3-1.4c1.3-0.2,2.4-0.8,2.9-1.6c0.2-0.3,0.3-0.7,0.2-1.1c-1-5.1-1.6-10.5-2-16
		c0-1.8,0.5-3.1,1.5-4.1c1.1-1.1,2.5-1.7,4-1.6c1.4,0.1,2.5,0.4,3.6,1c0.9,0.5,1.9,0.7,2.9,0.7c3.5,0,6.4-2.9,6.4-6.4
		c0-3.5-2.9-6.4-6.4-6.4c-1.3,0-2.5,0.4-3.6,1.1C81,35,78.8,35.1,77,34.1c-1.8-1-2.8-2.9-2.6-5c0.4-4.9,1-9.8,1.8-14.7
		c0.1-0.4,0-0.8-0.3-1.2c-0.5-0.7-1.6-1.3-2.7-1.4c-4.7-0.6-9.2-1.1-13.5-1.3c-0.8-0.1-1.4,0.2-1.9,0.8c-0.5,0.6-0.7,1.3-0.5,2.1
		c0.1,0.6,0.4,1.3,0.7,1.8c0.7,1.3,1,2.7,1,4.3c0,5.2-4.2,9.4-9.4,9.4c-5.2,0-9.4-4.2-9.4-9.4c0-1.9,0.6-3.8,1.7-5.4
		c0.6-0.8,0.6-1.6,0.1-2.5c-0.5-0.8-1.2-1.3-2.2-1.2v0c-3.9,0.3-8,0.7-12.1,1.3c-1.6,0.2-3.2,1.3-3.1,2.7c0.7,6.4,1,11.3,1.3,16
		c0,1.7-0.6,3-1.6,4.1c-1.2,1.1-2.6,1.6-4.1,1.5c-1.2-0.1-2.3-0.4-3.3-0.9c-0.9-0.5-1.9-0.7-2.9-0.7c-3.5,0-6.4,2.9-6.4,6.4
		c0,3.5,2.8,6.4,6.4,6.4c1.3,0,2.6-0.4,3.6-1.1C18.3,45.3,19.3,44.9,20.4,44.9z"/>
</g>
</svg>
