<?xml version="1.0" encoding="utf-8"?>
<!-- Generator: Adobe Illustrator 24.1.0, SVG Export Plug-In . SVG Version: 6.00 Build 0)  -->
<svg version="1.1" id="Layer_1" xmlns="http://www.w3.org/2000/svg" xmlns:xlink="http://www.w3.org/1999/xlink" x="0px" y="0px"
	 viewBox="0 0 100 80" style="enable-background:new 0 0 100 80;" xml:space="preserve">
<style type="text/css">
	.st0{fill:#161B35;}
	.st1{fill:#EAEBEF;}
	.st2{fill:#20244E;}
	.st3{fill:#B72F00;}
	.st4{fill:#FFFFFF;}
	.st5{fill:none;stroke:#20244E;stroke-width:3;stroke-linejoin:round;stroke-miterlimit:10;}
	.st6{fill:none;stroke:#20244E;stroke-width:3;stroke-linecap:round;stroke-linejoin:round;stroke-miterlimit:10;}
	.st7{fill:none;stroke:#FFFFFF;stroke-width:2;stroke-linecap:round;stroke-miterlimit:10;}
	.st8{fill:none;stroke:#EB1C24;stroke-width:4;stroke-miterlimit:10;}
	.st9{fill:none;stroke:#20244E;stroke-miterlimit:10;}
	.st10{fill:#F9AE3B;}
	.st11{fill:none;stroke:#FFFFFF;stroke-width:2;stroke-miterlimit:10;}
	.st12{fill:none;stroke:#20244E;stroke-width:2;stroke-miterlimit:10;}
	.st13{fill:#1A1A1A;}
	.st14{opacity:0.5;fill:#FFFFFF;}
	.st15{fill:none;stroke:#FFFFFF;stroke-miterlimit:10;}
	.st16{fill:#009045;}
	.st17{filter:url(#Adobe_OpacityMaskFilter);}
	.st18{fill-rule:evenodd;clip-rule:evenodd;fill:#FFFFFF;}
	.st19{mask:url(#mask-2_1_);fill-rule:evenodd;clip-rule:evenodd;fill:#20244E;}
	.st20{fill:#FFFFFF;stroke:#20244E;stroke-miterlimit:10;}
	.st21{fill:#0071BA;}
	.st22{fill:#F3B52C;}
	.st23{fill:none;stroke:#20244E;stroke-width:2;stroke-linecap:round;stroke-miterlimit:10;}
	.st24{fill:none;stroke:#FAEC21;stroke-width:6;stroke-miterlimit:10;}
	.st25{fill:#B1B1B1;}
	.st26{opacity:0.6;fill:#333333;}
	.st27{opacity:0.4;fill:#333333;}
	.st28{fill-rule:evenodd;clip-rule:evenodd;fill:none;stroke:#20244E;stroke-width:3;stroke-miterlimit:10;}
	.st29{fill:none;stroke:#20244E;stroke-width:3;stroke-miterlimit:10;}
	.st30{fill:none;stroke:#20244E;stroke-width:3;stroke-linecap:round;stroke-miterlimit:10;}
</style>
<g transform="translate(0,-952.36218)">
	<path class="st2" d="M46.8,957c5.3,0,9.5,3.7,10.8,8.6c5.7,0.1,10.2,4.8,10.2,10.5c0,3.6-1.9,6.7-4.7,8.6c0.5,1.2,0.8,2.5,0.8,3.8
		c0,5.8-4.7,10.5-10.5,10.5c-1.8,0-3.4-0.5-4.9-1.3c0.2,2.3,0.4,4.6,0.7,6.7c1-1.1,2.3-2,3.6-2.4c0.8-0.3,1.7-0.4,2.5-0.5
		c2.6-0.2,5.3,0.4,7.6,1.7c0.6,0.3,0.9,1,0.8,1.7c-0.8,3.5-3,6.7-5.9,8.4c-1.9,1.1-4.3,1.4-6.6,0.6c1,3.6,2.4,7.1,3.9,11
		c0.4,0.8,0.1,1.7-0.7,2.1c-0.8,0.4-1.7,0.1-2.1-0.7c0-0.1-0.1-0.1-0.1-0.2c-1.8-4.4-3.3-8.6-4.5-12.9c-2.8,1.7-6,1.5-8.4,0.1
		c-2.9-1.7-5-5-5.8-8.5c-0.1-0.7,0.2-1.4,0.8-1.7c2.4-1.2,5.1-1.8,7.7-1.6c0.9,0.1,1.7,0.3,2.5,0.6c0.4,0.1,0.8,0.3,1.1,0.5
		c-0.2-1.6-0.4-3.2-0.5-4.9c-1.5,0.9-3.3,1.4-5.2,1.4c-5.8,0-10.5-4.7-10.5-10.5c0-1.4,0.3-2.6,0.8-3.8c-2.8-1.9-4.7-5-4.7-8.6
		c0-5.7,4.6-10.3,10.2-10.5C37.3,960.7,41.5,957,46.8,957z M46.8,960.1c-4.2,0-7.6,3.1-8.1,7.2c-0.1,0.8-0.9,1.4-1.7,1.4
		c-0.3,0-0.5,0-0.7,0c-4.1,0-7.4,3.3-7.4,7.4c0,2.9,1.7,5.4,4.2,6.6c0.8,0.4,1.1,1.3,0.7,2.1c0,0,0,0.1,0,0.1c-0.6,1.1-1,2.3-1,3.6
		c0,4.1,3.3,7.4,7.4,7.4c2.2,0,4.1-0.9,5.5-2.4c0.6-0.6,1.6-0.7,2.2-0.1c0,0,0.1,0.1,0.1,0.1c1.4,1.5,3.3,2.4,5.5,2.4
		c4.1,0,7.4-3.3,7.4-7.4c0-1.3-0.4-2.6-1-3.6c-0.4-0.7-0.2-1.7,0.6-2.1c0,0,0.1,0,0.1,0c2.5-1.2,4.2-3.7,4.2-6.6
		c0-4.1-3.3-7.4-7.4-7.4c-0.2,0-0.4,0-0.7,0c-0.8,0.1-1.6-0.5-1.7-1.4C54.4,963.3,51,960.1,46.8,960.1z M46.8,969.4
		c5.1,0,9.3,4.2,9.3,9.3s-4.2,9.3-9.3,9.3s-9.3-4.2-9.3-9.3S41.6,969.4,46.8,969.4z M46.8,972.5c-3.5,0-6.2,2.8-6.2,6.2
		s2.8,6.2,6.2,6.2s6.2-2.8,6.2-6.2S50.2,972.5,46.8,972.5z M40.7,1004.5c-1.2,0-2.4,0.3-3.6,0.7c0.8,2.2,2.2,4.2,3.9,5.2
		c1.8,1.1,3.7,1.2,5.9-0.6c0-0.2,0-0.4,0-0.6c-0.1-0.5-0.2-1-0.3-1.5c-0.5-1.4-1.5-2.3-3-2.8c-0.5-0.2-1.2-0.3-1.8-0.4
		C41.5,1004.5,41.1,1004.5,40.7,1004.5L40.7,1004.5z M56.8,1004.5c-0.4,0-0.8,0-1.2,0c-0.6,0-1.2,0.2-1.8,0.3c-2,0.7-3.4,2-3.4,4.9
		c2.2,1.9,4.1,1.8,5.9,0.7c1.7-1,3.2-3,4.1-5.1C59.2,1004.9,58,1004.6,56.8,1004.5z"/>
</g>
<g>
	<path class="st2" d="M61.6,74.8c-0.4,0-0.8-0.2-1.1-0.5c-0.5-0.6-0.5-1.6,0.2-2.1c0.1-0.1,6-5.3,7.7-12.4c0.2-0.8,1-1.3,1.8-1.1
		c0.8,0.2,1.3,1,1.1,1.8c-1.8,8.1-8.4,13.8-8.6,14C62.3,74.7,61.9,74.8,61.6,74.8z"/>
</g>
<g>
	<path class="st2" d="M45.4,75c-0.6,0-1.2-0.4-1.4-1.1c-0.1-0.2-1.5-4.7-6.6-7c-0.8-0.3-1.1-1.2-0.7-2c0.3-0.8,1.2-1.1,2-0.7
		c6.3,2.9,8.1,8.6,8.2,8.8c0.2,0.8-0.2,1.6-1,1.9C45.7,75,45.6,75,45.4,75z"/>
</g>
</svg>
