<svg xmlns="http://www.w3.org/2000/svg" width="69.518" height="53.806" viewBox="0 0 69.518 53.806">
  <g id="Group_100" data-name="Group 100" transform="translate(-1140.958 -9378.101)">
    <path id="Path_143" data-name="Path 143" d="M1183.416,9423.5a18.35,18.35,0,0,0-.183-2.108c-.008-.036-.008-.073-.015-.11-.044-.271-.088-.536-.147-.809a16.617,16.617,0,0,0-.5-1.88v-.008c-.074-.205-.147-.4-.228-.609a13.788,13.788,0,0,0-2.248-3.769c-.022-.03-.044-.052-.066-.081s-.044-.051-.066-.081c-.177-.2-.537-.573-.537-.573l-.2-.2-.375-.354a16.406,16.406,0,0,0-4.584-2.879,28.64,28.64,0,0,0-9.565-2.057,40.415,40.415,0,0,0-8.587.382c-4.5.705-9.176,2.461-12.078,6.126a14.051,14.051,0,0,0-2.8,6.318,31.164,31.164,0,0,0-.279,5.429v2.549a4.951,4.951,0,0,0,.015.669,2.766,2.766,0,0,0,1.138,1.932,3.639,3.639,0,0,0,2.307.5h36.239a2.75,2.75,0,0,0,1.888-.733h-.022a2.889,2.889,0,0,0,.559-.735,2.942,2.942,0,0,0,.3-.911v-.007a7.93,7.93,0,0,0,.037-.939v-4.255c.007-.021.007-.044.014-.065C1183.431,9424,1183.424,9423.753,1183.416,9423.5Z" fill="#20244e"/>
    <path id="Path_144" data-name="Path 144" d="M1210.476,9425.134a.622.622,0,0,1-.022.176v3.872a2.684,2.684,0,0,1-.7,2,2.5,2.5,0,0,1-1.77.721c-1.44.014-2.887,0-4.327,0h-15.045a4.707,4.707,0,0,0,.33-.735,5.128,5.128,0,0,0,.2-.735,9.843,9.843,0,0,0,.162-1.982v-3.931a3.141,3.141,0,0,0,.022-.375,18.544,18.544,0,0,0-2.733-10.071c-.205-.309-.411-.609-.631-.9-.162-.221-.331-.426-.507-.639s-.353-.419-.537-.618a28.567,28.567,0,0,1,4.981-.728,33.778,33.778,0,0,1,8.206.448,18.813,18.813,0,0,1,6.663,2.477,12.088,12.088,0,0,1,4.18,4.407A14.156,14.156,0,0,1,1210.476,9425.134Z" fill="#20244e"/>
    <path id="Path_145" data-name="Path 145" d="M1202.373,9395.207h0c0,.015-.014.021-.014.037s-.008.007-.008.015a12.211,12.211,0,0,1-.132,1.564,10.11,10.11,0,1,1,.14-1.66C1202.359,9395.178,1202.373,9395.192,1202.373,9395.207Z" fill="#20244e"/>
    <path id="Path_146" data-name="Path 146" d="M1175.411,9389.866h0c0,.021.014.037.014.044a12.5,12.5,0,0,1-.147,1.822,11.8,11.8,0,1,1,.147-1.91C1175.425,9389.837,1175.411,9389.852,1175.411,9389.866Z" fill="#20244e"/>
  </g>
</svg>
