<svg id="e11uqvd7zo4rs1" xmlns="http://www.w3.org/2000/svg" xmlns:xlink="http://www.w3.org/1999/xlink" viewBox="0 0 300 300" shape-rendering="geometricPrecision" text-rendering="geometricPrecision"><style><![CDATA[#e11uqvd7zo4rs2_ts {animation: e11uqvd7zo4rs2_ts__ts 2000ms linear infinite alternate forwards}@keyframes e11uqvd7zo4rs2_ts__ts { 0% {transform: translate(150px,150px) scale(0.500000,0.500000);animation-timing-function: cubic-bezier(0,0,0,0.995000)} 30% {transform: translate(150px,150px) scale(1.100000,1.100000);animation-timing-function: cubic-bezier(0,0,0,0.995000)} 70% {transform: translate(150px,150px) scale(0.750000,0.750000);animation-timing-function: cubic-bezier(0,0,0,0.995000)} 100% {transform: translate(150px,150px) scale(0.500000,0.500000)} }#e11uqvd7zo4rs3_ts {animation: e11uqvd7zo4rs3_ts__ts 2000ms linear infinite alternate forwards}@keyframes e11uqvd7zo4rs3_ts__ts { 0% {transform: translate(150px,150px) scale(0.500000,0.500000);animation-timing-function: cubic-bezier(0,0,0,0.995000)} 30% {transform: translate(150px,150px) scale(1.100000,1.100000);animation-timing-function: cubic-bezier(0,0,0,0.995000)} 70% {transform: translate(150px,150px) scale(0.750000,0.750000);animation-timing-function: cubic-bezier(0,0,0,0.995000)} 100% {transform: translate(150px,150px) scale(0.500000,0.500000)} }]]></style><defs><filter id="e11uqvd7zo4rs2-filter" x="-400%" width="600%" y="-400%" height="600%"><feGaussianBlur id="e11uqvd7zo4rs2-filter-blur-0" stdDeviation="0,0" result="result"/></filter><filter id="e11uqvd7zo4rs3-filter" x="-400%" width="600%" y="-400%" height="600%"><feGaussianBlur id="e11uqvd7zo4rs3-filter-blur-0" stdDeviation="0,0" result="result"/></filter></defs><g id="e11uqvd7zo4rs2_ts" transform="translate(150,150) scale(0.500000,0.500000)"><path id="e11uqvd7zo4rs2" d="M-236.354953,1.354953C-236.354953,-70.442064,-178.151971,-128.645047,-106.354953,-128.645047C-34.557936,-128.645047,23.645047,-70.442064,23.645047,1.354953C23.645047,73.151971,-34.557936,131.354953,-106.354953,131.354953C-178.151971,131.354953,-236.354953,73.151971,-236.354953,1.354953Z" transform="translate(106.354953,-1.354953)" filter="url(#e11uqvd7zo4rs2-filter)" fill="none" stroke="rgb(255,255,255)" stroke-width="25"/></g><g id="e11uqvd7zo4rs3_ts" transform="translate(150,150) scale(0.500000,0.500000)"><path id="e11uqvd7zo4rs3" d="M-126.354953,1.354953C-126.354953,-9.690742,-117.400648,-18.645047,-106.354953,-18.645047C-95.309258,-18.645047,-86.354953,-9.690742,-86.354953,1.354953C-86.354953,12.400648,-95.309258,21.354953,-106.354953,21.354953C-117.400648,21.354953,-126.354953,12.400648,-126.354953,1.354953Z" transform="translate(106.354953,-1.354953)" filter="url(#e11uqvd7zo4rs3-filter)" fill="rgb(255,255,255)" stroke="none" stroke-width="25"/></g></svg>