<svg id="ebbd8wrakkul1" xmlns="http://www.w3.org/2000/svg" xmlns:xlink="http://www.w3.org/1999/xlink" viewBox="0 0 300 300" shape-rendering="geometricPrecision" text-rendering="geometricPrecision"><style><![CDATA[#ebbd8wrakkul2_ts {animation: ebbd8wrakkul2_ts__ts 2000ms linear infinite alternate forwards}@keyframes ebbd8wrakkul2_ts__ts { 0% {transform: translate(150px,150px) scale(0.500000,0.500000);animation-timing-function: cubic-bezier(0,0,0,0.995000)} 30% {transform: translate(150px,150px) scale(1.100000,1.100000);animation-timing-function: cubic-bezier(0,0,0,0.995000)} 70% {transform: translate(150px,150px) scale(0.750000,0.750000);animation-timing-function: cubic-bezier(0,0,0,0.995000)} 100% {transform: translate(150px,150px) scale(0.500000,0.500000)} }#ebbd8wrakkul3_ts {animation: ebbd8wrakkul3_ts__ts 2000ms linear infinite alternate forwards}@keyframes ebbd8wrakkul3_ts__ts { 0% {transform: translate(150px,150px) scale(0.500000,0.500000);animation-timing-function: cubic-bezier(0,0,0,0.995000)} 30% {transform: translate(150px,150px) scale(1.100000,1.100000);animation-timing-function: cubic-bezier(0,0,0,0.995000)} 70% {transform: translate(150px,150px) scale(0.750000,0.750000);animation-timing-function: cubic-bezier(0,0,0,0.995000)} 100% {transform: translate(150px,150px) scale(0.500000,0.500000)} }]]></style><defs><filter id="ebbd8wrakkul2-filter" x="-400%" width="600%" y="-400%" height="600%"><feGaussianBlur id="ebbd8wrakkul2-filter-blur-0" stdDeviation="0,0" result="result"/></filter><filter id="ebbd8wrakkul3-filter" x="-400%" width="600%" y="-400%" height="600%"><feGaussianBlur id="ebbd8wrakkul3-filter-blur-0" stdDeviation="0,0" result="result"/></filter></defs><g id="ebbd8wrakkul2_ts" transform="translate(150,150) scale(0.500000,0.500000)"><path id="ebbd8wrakkul2" d="M-236.354953,1.354953C-236.354953,-70.442064,-178.151971,-128.645047,-106.354953,-128.645047C-34.557936,-128.645047,23.645047,-70.442064,23.645047,1.354953C23.645047,73.151971,-34.557936,131.354953,-106.354953,131.354953C-178.151971,131.354953,-236.354953,73.151971,-236.354953,1.354953Z" transform="translate(106.354953,-1.354953)" filter="url(#ebbd8wrakkul2-filter)" fill="none" stroke="rgb(255,255,255)" stroke-width="25"/></g><g id="ebbd8wrakkul3_ts" transform="translate(150,150) scale(0.500000,0.500000)"><path id="ebbd8wrakkul3" d="M-196.331307,1.354953C-196.331307,-48.337615,-156.047521,-88.621401,-106.354953,-88.621401C-56.662385,-88.621401,-16.378599,-48.337615,-16.378599,1.354953C-16.378599,51.047521,-56.662385,91.331307,-106.354953,91.331307C-156.047521,91.331307,-196.331307,51.047521,-196.331307,1.354953Z" transform="translate(106.354953,-1.354953)" filter="url(#ebbd8wrakkul3-filter)" fill="rgb(255,255,255)" stroke="none" stroke-width="25"/></g></svg>