<svg id="emw84y7v1w3h1" xmlns="http://www.w3.org/2000/svg" xmlns:xlink="http://www.w3.org/1999/xlink" viewBox="0 0 300 300" shape-rendering="geometricPrecision" text-rendering="geometricPrecision"><style><![CDATA[#emw84y7v1w3h2_ts {animation: emw84y7v1w3h2_ts__ts 2000ms linear infinite alternate forwards}@keyframes emw84y7v1w3h2_ts__ts { 0% {transform: translate(150px,150px) scale(0.500000,0.500000);animation-timing-function: cubic-bezier(0,0,0,0.995000)} 30% {transform: translate(150px,150px) scale(1.100000,1.100000);animation-timing-function: cubic-bezier(0,0,0,0.995000)} 70% {transform: translate(150px,150px) scale(0.750000,0.750000);animation-timing-function: cubic-bezier(0,0,0,0.995000)} 100% {transform: translate(150px,150px) scale(0.500000,0.500000)} }#emw84y7v1w3h3_ts {animation: emw84y7v1w3h3_ts__ts 2000ms linear infinite alternate forwards}@keyframes emw84y7v1w3h3_ts__ts { 0% {transform: translate(150px,150px) scale(0.500000,0.500000);animation-timing-function: cubic-bezier(0,0,0,0.995000)} 30% {transform: translate(150px,150px) scale(1.100000,1.100000);animation-timing-function: cubic-bezier(0,0,0,0.995000)} 70% {transform: translate(150px,150px) scale(0.750000,0.750000);animation-timing-function: cubic-bezier(0,0,0,0.995000)} 100% {transform: translate(150px,150px) scale(0.500000,0.500000)} }]]></style><defs><filter id="emw84y7v1w3h2-filter" x="-400%" width="600%" y="-400%" height="600%"><feGaussianBlur id="emw84y7v1w3h2-filter-blur-0" stdDeviation="0,0" result="result"/></filter><filter id="emw84y7v1w3h3-filter" x="-400%" width="600%" y="-400%" height="600%"><feGaussianBlur id="emw84y7v1w3h3-filter-blur-0" stdDeviation="0,0" result="result"/></filter></defs><g id="emw84y7v1w3h2_ts" transform="translate(150,150) scale(0.500000,0.500000)"><path id="emw84y7v1w3h2" d="M-236.354953,1.354953C-236.354953,-70.442064,-178.151971,-128.645047,-106.354953,-128.645047C-34.557936,-128.645047,23.645047,-70.442064,23.645047,1.354953C23.645047,73.151971,-34.557936,131.354953,-106.354953,131.354953C-178.151971,131.354953,-236.354953,73.151971,-236.354953,1.354953Z" transform="translate(106.354953,-1.354953)" filter="url(#emw84y7v1w3h2-filter)" fill="none" stroke="rgb(255,255,255)" stroke-width="25"/></g><g id="emw84y7v1w3h3_ts" transform="translate(150,150) scale(0.500000,0.500000)"><path id="emw84y7v1w3h3" d="M-166.354953,1.354953C-166.354953,-31.782132,-139.492038,-58.645047,-106.354953,-58.645047C-73.217868,-58.645047,-46.354953,-31.782132,-46.354953,1.354953C-46.354953,34.492038,-73.217868,61.354953,-106.354953,61.354953C-139.492038,61.354953,-166.354953,34.492038,-166.354953,1.354953Z" transform="translate(106.354953,-1.354953)" filter="url(#emw84y7v1w3h3-filter)" fill="rgb(255,255,255)" stroke="none" stroke-width="25"/></g></svg>