<svg xmlns="http://www.w3.org/2000/svg" width="57.439" height="57.284" viewBox="0 0 57.439 57.284">
  <path id="Path_130" data-name="Path 130" d="M249.213,9376.858a2,2,0,0,0-1.192.08c-4.289,1.668-6.99,7.784-7.626,11.994-1.986,13.664,8.818,25.5,18.748,33.286,8.818,6.912,25.739,18.272,35.749,7.31,1.271-1.352,2.78-3.337,2.7-5.323-.239-3.336-3.337-5.719-5.72-7.547-1.827-1.351-5.64-5.084-8.024-5-2.145.079-3.495,2.3-4.846,3.653l-2.383,2.384c-.4.4-5.481-2.939-6.037-3.336a40.569,40.569,0,0,1-5.8-4.529,37.483,37.483,0,0,1-4.687-5.4c-.4-.556-3.654-5.4-3.336-5.8,0,0,2.78-3.019,3.575-4.21,1.668-2.542,2.939-4.528,1.032-7.547a17.723,17.723,0,0,0-2.542-2.939,48.285,48.285,0,0,0-5.243-4.607C252.549,9378.527,250.8,9377.1,249.213,9376.858Z" transform="translate(-240.157 -9376.807)" fill="#20244e"/>
</svg>
