<svg xmlns="http://www.w3.org/2000/svg" width="220.145" height="38.339" viewBox="0 0 220.145 38.339">
  <g id="Group_119" data-name="Group 119" transform="translate(-499.458 -779.793)">
    <path id="Path_199" data-name="Path 199" d="M519.614,809.464l-12.457,8.669,4.395-14.526-12.094-9.169,15.173-.309,4.983-14.335,4.983,14.335,15.173.309-12.094,9.169,4.395,14.526Z" fill="#f3b52c"/>
    <path id="Path_200" data-name="Path 200" d="M564.572,809.464l-12.457,8.669,4.395-14.526-12.094-9.169,15.173-.309,4.983-14.335,4.983,14.335,15.173.309-12.094,9.169,4.395,14.526Z" fill="#f3b52c"/>
    <path id="Path_201" data-name="Path 201" d="M609.53,809.464l-12.457,8.669,4.395-14.526-12.094-9.169,15.173-.309,4.983-14.335,4.983,14.335,15.173.309-12.094,9.169,4.395,14.526Z" fill="#f3b52c"/>
    <path id="Path_202" data-name="Path 202" d="M654.489,809.464l-12.457,8.669,4.395-14.526-12.094-9.169,15.173-.309,4.983-14.335,4.983,14.335,15.173.309-12.094,9.169,4.395,14.526Z" fill="#f3b52c"/>
    <path id="Path_203" data-name="Path 203" d="M699.447,809.464l-12.457,8.669,4.395-14.526-12.094-9.169,15.173-.309,4.983-14.335,4.983,14.335,15.173.309-12.094,9.169,4.395,14.526Z" fill="#f3b52c"/>
  </g>
</svg>
