<svg xmlns="http://www.w3.org/2000/svg" width="14.339" height="14.3" viewBox="0 0 14.339 14.3">
  <path id="Path_99" data-name="Path 99" d="M1135.131,20.713a.5.5,0,0,0-.3.02c-1.071.416-1.745,1.943-1.9,2.994-.495,3.411,2.2,6.366,4.68,8.31,2.2,1.725,6.426,4.561,8.924,1.824a2.058,2.058,0,0,0,.675-1.329c-.06-.832-.833-1.427-1.428-1.884-.456-.337-1.408-1.269-2-1.249-.536.02-.873.575-1.21.912l-.595.595c-.1.1-1.368-.733-1.507-.833a10.219,10.219,0,0,1-1.448-1.13,9.451,9.451,0,0,1-1.17-1.348,6.879,6.879,0,0,1-.832-1.448s.694-.754.892-1.051c.416-.635.734-1.131.258-1.884a4.456,4.456,0,0,0-.635-.734,12.07,12.07,0,0,0-1.309-1.15A2.809,2.809,0,0,0,1135.131,20.713Z" transform="translate(-1132.87 -20.7)" fill="#fff"/>
</svg>
