<?xml version="1.0" encoding="utf-8"?>
<!-- Generator: Adobe Illustrator 24.1.0, SVG Export Plug-In . SVG Version: 6.00 Build 0)  -->
<svg version="1.1" id="Layer_1" xmlns="http://www.w3.org/2000/svg" xmlns:xlink="http://www.w3.org/1999/xlink" x="0px" y="0px"
	 viewBox="0 0 100 80" style="enable-background:new 0 0 100 80;" xml:space="preserve">
<style type="text/css">
	.st0{fill:#20244E;}
	.st1{fill:#E6E6E6;}
	.st2{fill:#B92F00;}
	.st3{fill:#FFFFFF;}
	.st4{fill:none;stroke:#20244E;stroke-width:3;stroke-linejoin:round;stroke-miterlimit:10;}
	.st5{fill:none;stroke:#20244E;stroke-width:3;stroke-linecap:round;stroke-linejoin:round;stroke-miterlimit:10;}
	.st6{fill:#FBB03B;}
</style>
<g transform="translate(0,-280.06665)">
	<g>
		<path class="st0" d="M65.7,283.7l-7.6,7.6c-0.6,0.6-0.6,1.6,0,2.1l27.4,27.4c0.6,0.6,1.6,0.6,2.2,0l7.6-7.6c0.6-0.6,0.6-1.6,0-2.2
			l-27.4-27.4C67,282.9,66.4,283,65.7,283.7L65.7,283.7z M32.2,283.7L4.8,311.1c-0.6,0.6-0.6,1.6,0,2.2l7.6,7.6
			c0.6,0.6,1.6,0.6,2.1,0l27.4-27.4c0.6-0.6,0.6-1.6,0-2.1l-7.6-7.6C33.6,282.9,32.8,283.1,32.2,283.7L32.2,283.7z M33.3,286.9
			l5.5,5.5l-25.3,25.3L8,312.2L33.3,286.9z M66.8,286.9L92,312.2l-5.5,5.5l-25.3-25.2L66.8,286.9z M43,297.4
			c-1.5-0.2-2.4,2.1-0.8,2.9l4.6,2.5l-3.6,1.9c-0.1,0.1-0.2,0.2-0.4,0.3l-7.6,7.6c-2.3,2.3-2.3,6,0,8.2c2.3,2.3,6,2.3,8.2,0l5.2-5.2
			c1.2,1,3.6,2.6,7.4,2.6c5.2,0,8.7-3.5,8.7-3.5c1.5-1.4-0.7-3.6-2.2-2.2c0,0-2.6,2.6-6.5,2.6c-3.9,0-6.5-2.6-6.5-2.6
			c-0.6-0.6-1.6-0.6-2.2,0l-6.1,6.1c-1.1,1.1-2.8,1.1-3.9,0c-1.1-1.1-1.1-2.8,0-3.9l7.5-7.5l13-7c1.4-0.7,0.9-2.9-0.8-2.9
			c-0.2,0-0.5,0.1-0.7,0.2l-6.4,3.4l-6.4-3.4C43.4,297.5,43.2,297.4,43,297.4L43,297.4z M68.3,316.7c-1.4,0-2,1.7-1.1,2.6l9.1,9.1
			c1.1,1.1,1.1,2.8,0,3.9c-1.1,1.1-2.8,1.1-3.9,0l-1.5-1.5c-0.3-0.3-0.7-0.5-1.1-0.5c-1.4,0-2,1.7-1.1,2.6l1.5,1.5
			c1.1,1.1,1.1,2.8,0,3.9c-1.1,1.1-2.8,1.1-3.9,0l-1.5-1.5c-1.4-1.5-3.6,0.7-2.2,2.2l1.5,1.5c1.1,1.1,1.1,2.8,0,3.9
			c-1.1,1.1-2.8,1.1-3.9,0l-1.5-1.5c-0.3-0.3-0.7-0.5-1.1-0.5c-1.4,0-2,1.7-1.1,2.6l1.5,1.5c1.1,1.1,1.1,2.8,0,3.9
			c-0.8,0.8-2,1-2.9,0.6c-1.9-0.8-3,2.2-1.1,2.9c2.1,0.8,4.5,0.3,6.1-1.3c1.2-1.2,1.8-2.8,1.7-4.4c1.6,0.1,3.2-0.5,4.4-1.7
			c1.2-1.2,1.8-2.8,1.7-4.4c1.6,0.1,3.2-0.5,4.4-1.7c1.2-1.2,1.8-2.8,1.7-4.4c1.6,0.1,3.2-0.5,4.4-1.7c2.3-2.3,2.3-6,0-8.2l-2-2l3-3
			c1.5-1.4-0.7-3.6-2.2-2.2l-3,3l-5-5C69.1,316.9,68.7,316.7,68.3,316.7z M20.5,321.4l3,3l-2,2c-2.3,2.3-2.3,6,0,8.2
			c1.2,1.2,2.8,1.7,4.4,1.7c-0.1,1.6,0.5,3.2,1.7,4.4c1.2,1.2,2.8,1.8,4.4,1.7c-0.1,1.6,0.5,3.2,1.7,4.4c1.2,1.2,2.8,1.7,4.4,1.7
			c-0.1,1.6,0.5,3.2,1.7,4.4c2.3,2.3,6,2.3,8.2,0l3-3c2.3-2.3,2.3-6,0-8.2c-1.1-1.1-2.6-1.7-4.1-1.7c-0.1,0-0.2,0-0.3,0
			c0.1-1.6-0.5-3.2-1.7-4.4c-1.1-1.1-2.6-1.7-4.1-1.7c-0.1,0-0.2,0-0.3,0c0.1-1.6-0.5-3.2-1.7-4.4c-1.1-1.1-2.6-1.7-4.1-1.7l-0.3,0
			c0.1-1.6-0.5-3.2-1.7-4.4c-1.1-1.1-2.6-1.7-4.1-1.7c-1,0-2,0.3-2.9,0.8l-3.1-3.1C21.1,317.8,19.1,319.9,20.5,321.4z M28.7,324.6
			c0.7,0,1.4,0.3,2,0.8c1.1,1.1,1.1,2.8,0,3.9l-3,3c-1.1,1.1-2.8,1.1-3.9,0c-1.1-1.1-1.1-2.8,0-3.9l3-3
			C27.3,324.9,28,324.6,28.7,324.6z M34.8,330.7c0.7,0,1.4,0.3,2,0.8c1.1,1.1,1.1,2.8,0,3.9l-3,3c-1.1,1.1-2.8,1.1-3.9,0
			c-1.1-1.1-1.1-2.8,0-3.9l3-3C33.4,331,34.1,330.7,34.8,330.7z M40.9,336.8c0.7,0,1.4,0.3,2,0.8c1.1,1.1,1.1,2.8,0,3.9l-3,3
			c-1.1,1.1-2.8,1.1-3.9,0c-1.1-1.1-1.1-2.8,0-3.9l3-3C39.5,337.1,40.2,336.8,40.9,336.8z M47,342.9c0.7,0,1.4,0.3,2,0.8
			c1.1,1.1,1.1,2.8,0,3.9l-3,3c-1.1,1.1-2.8,1.1-3.9,0c-1.1-1.1-1.1-2.8,0-3.9l3-3C45.5,343.2,46.3,342.9,47,342.9z"/>
	</g>
</g>
</svg>
