<svg xmlns="http://www.w3.org/2000/svg" width="63.42" height="49.59" viewBox="0 0 63.42 49.59">
  <g id="Group_177" data-name="Group 177" transform="translate(-669.802 -1302.393)">
    <g id="Group_48" data-name="Group 48" transform="translate(669.802 1302.393)">
      <path id="Path_102" data-name="Path 102" d="M712.392,1302.8l-5.282,5.28a1.057,1.057,0,0,0,0,1.49l19.022,19.03a1.056,1.056,0,0,0,1.5,0l5.283-5.282a1.058,1.058,0,0,0,0-1.5L713.89,1302.8c-.584-.585-.99-.508-1.5,0Zm-23.25,0-19.028,19.02a1.057,1.057,0,0,0,0,1.5l5.289,5.283a1.058,1.058,0,0,0,1.49,0l19.029-19.03a1.058,1.058,0,0,0,0-1.49l-5.289-5.28a.954.954,0,0,0-1.49,0Zm.75,2.238,3.784,3.784-17.532,17.532-3.784-3.783Zm23.25,0,17.523,17.532-3.786,3.783-17.53-17.524Zm-16.508,7.289a1.067,1.067,0,0,0-.547,2.015l3.2,1.721-2.5,1.346a1.057,1.057,0,0,0-.246.183l-5.284,5.285a4.046,4.046,0,0,0,5.722,5.722l3.6-3.6a7.9,7.9,0,0,0,5.169,1.792,9.144,9.144,0,0,0,6.032-2.424,1.057,1.057,0,1,0-1.494-1.494,6.608,6.608,0,0,1-9.075,0,1.057,1.057,0,0,0-1.495,0l-4.227,4.228a1.933,1.933,0,0,1-2.734-2.734l5.175-5.175,9.029-4.862a1.057,1.057,0,1,0-1-1.862l-4.436,2.388-4.424-2.38a1.151,1.151,0,0,0-.456-.155Zm17.553,13.4a1.057,1.057,0,0,0-.737,1.815l6.341,6.341a1.932,1.932,0,0,1-2.733,2.733L716,1335.563a1.057,1.057,0,1,0-1.494,1.494l1.056,1.057a1.932,1.932,0,1,1-2.733,2.733l-1.057-1.057a1.057,1.057,0,1,0-1.494,1.495l1.057,1.057a1.932,1.932,0,0,1-2.733,2.733l-1.057-1.057a1.057,1.057,0,1,0-1.494,1.495l1.056,1.057a1.934,1.934,0,0,1-2.037,3.181,1.057,1.057,0,1,0-.735,1.982,18.38,18.38,0,0,1,8.495-5.163,3.988,3.988,0,0,1,4.228-4.228,3.987,3.987,0,0,1,4.228-4.228,4.061,4.061,0,0,0,0-5.722l-1.367-1.367,2.075-2.074a1.057,1.057,0,1,0-1.495-1.495l-2.074,2.075-3.481-3.48A1.056,1.056,0,0,0,714.186,1325.731Zm-33.148,3.223,2.071,2.07-1.37,1.371a92.612,92.612,0,0,1,4.23,9.948,3.984,3.984,0,0,1,4.228,4.229,3.984,3.984,0,0,1,4.229,4.228,4.066,4.066,0,0,0,5.726,0l2.105-2.114a4.065,4.065,0,0,0,0-5.726,4.018,4.018,0,0,0-2.855-1.179c-.069,0-.137.016-.206.02a4,4,0,0,0-4.021-4.249c-.069,0-.137.016-.206.02a4.019,4.019,0,0,0-4.023-4.249l-.2.02a4,4,0,0,0-4.025-4.242,4.063,4.063,0,0,0-2,.541l-2.184-2.184A1.057,1.057,0,1,0,681.038,1328.953Zm5.677,2.24a1.947,1.947,0,0,1,1.366,3.317l-2.114,2.105a1.931,1.931,0,0,1-2.731-2.731l2.114-2.114A1.925,1.925,0,0,1,686.715,1331.193Zm4.23,4.229a1.923,1.923,0,0,1,1.365.578,1.9,1.9,0,0,1,0,2.729l-2.114,2.116a1.931,1.931,0,0,1-2.732-2.731L689.58,1336A1.924,1.924,0,0,1,690.944,1335.423Zm4.229,4.228a1.924,1.924,0,0,1,1.365.578,1.9,1.9,0,0,1,0,2.731l-2.114,2.114a1.931,1.931,0,0,1-2.731-2.731l2.114-2.114A1.926,1.926,0,0,1,695.174,1339.65Zm4.228,4.23a1.925,1.925,0,0,1,1.365.578,1.9,1.9,0,0,1,0,2.729l-2.114,2.116a1.931,1.931,0,0,1-2.731-2.731l2.115-2.114A1.923,1.923,0,0,1,699.4,1343.88Z" transform="translate(-669.802 -1302.393)" fill="#fff"/>
    </g>
  </g>
</svg>
