<?xml version="1.0" encoding="utf-8"?>
<!-- Generator: Adobe Illustrator 21.1.0, SVG Export Plug-In . SVG Version: 6.00 Build 0)  -->
<!DOCTYPE svg PUBLIC "-//W3C//DTD SVG 1.1//EN" "http://www.w3.org/Graphics/SVG/1.1/DTD/svg11.dtd">
<svg version="1.1" id="Layer_1" xmlns="http://www.w3.org/2000/svg" xmlns:xlink="http://www.w3.org/1999/xlink" x="0px" y="0px"
	 viewBox="0 0 42 42" enable-background="new 0 0 42 42" xml:space="preserve">
<g>
	<g>
		<path fill="#FFFFFF" d="M36.5,2.8H5.8c-1.5,0-2.7,1.2-2.7,2.6v30.8c0,1.4,1.2,2.6,2.7,2.6h16.6V24.8h-4.7v-5.4h4.7v-4
			c0-4.6,2.8-7.2,7-7.2c2,0,3.7,0.1,4.2,0.2v4.9l-2.9,0c-2.3,0-2.7,1.1-2.7,2.6v3.5h5.4l-0.7,5.4H28v13.9h8.5c1.5,0,2.7-1.2,2.7-2.6
			V5.4C39.1,3.9,37.9,2.8,36.5,2.8z"/>
	</g>
</g>
</svg>
