<?xml version="1.0" encoding="utf-8"?>
<!-- Generator: Adobe Illustrator 21.1.0, SVG Export Plug-In . SVG Version: 6.00 Build 0)  -->
<!DOCTYPE svg PUBLIC "-//W3C//DTD SVG 1.1//EN" "http://www.w3.org/Graphics/SVG/1.1/DTD/svg11.dtd">
<svg version="1.1" xmlns="http://www.w3.org/2000/svg" xmlns:xlink="http://www.w3.org/1999/xlink" x="0px" y="0px"
	 viewBox="0 0 38 38" enable-background="new 0 0 38 38" xml:space="preserve">
<g id="Layer_1" display="none">
</g>
<g id="Donna_Edits" display="none">
	<g display="inline">
		<defs>
			
				<rect id="SVGID_1_" x="-428.4" y="-293.3" transform="matrix(6.123234e-17 -1 1 6.123234e-17 -332.5767 -199.1333)" width="325" height="720"/>
		</defs>
		<clipPath id="SVGID_2_">
			<use xlink:href="#SVGID_1_"  overflow="visible"/>
		</clipPath>
		<g transform="matrix(1 0 0 1 0 0)" clip-path="url(#SVGID_2_)">
			
				<image overflow="visible" width="2500" height="941" xlink:href="E301521FBD151BAD.jpg"  transform="matrix(-0.4516 0 0 0.4516 399.263 -108.7783)">
			</image>
		</g>
	</g>
</g>
<g id="Team_Update">
	<g>
		<circle fill="#FFFFFF" cx="19" cy="19" r="4.3"/>
		<path fill="#FFFFFF" d="M29.1,11.3c-0.2-0.6-0.5-1-1-1.5c-0.5-0.5-0.9-0.7-1.5-1c-0.5-0.2-1.1-0.4-2.4-0.4
			c-1.4-0.1-1.8-0.1-5.3-0.1c-3.5,0-3.9,0-5.3,0.1c-1.3,0.1-2,0.3-2.4,0.4c-0.6,0.2-1,0.5-1.5,1c-0.5,0.5-0.7,0.9-1,1.5
			c-0.2,0.5-0.4,1.1-0.4,2.4c-0.1,1.4-0.1,1.8-0.1,5.3s0,3.9,0.1,5.3c0.1,1.3,0.3,2,0.4,2.4c0.2,0.6,0.5,1,1,1.5
			c0.5,0.5,0.9,0.7,1.5,1c0.5,0.2,1.1,0.4,2.4,0.4c1.4,0.1,1.8,0.1,5.3,0.1c3.5,0,3.9,0,5.3-0.1c1.3-0.1,2-0.3,2.4-0.4
			c0.6-0.2,1-0.5,1.5-1c0.5-0.5,0.7-0.9,1-1.5c0.2-0.5,0.4-1.1,0.4-2.4c0.1-1.4,0.1-1.8,0.1-5.3s0-3.9-0.1-5.3
			C29.5,12.5,29.3,11.8,29.1,11.3z M19,25.7c-3.7,0-6.7-3-6.7-6.7s3-6.7,6.7-6.7s6.7,3,6.7,6.7S22.7,25.7,19,25.7z M25.9,13.6
			c-0.9,0-1.6-0.7-1.6-1.6c0-0.9,0.7-1.6,1.6-1.6c0.9,0,1.6,0.7,1.6,1.6C27.5,12.9,26.8,13.6,25.9,13.6z"/>
		<path fill="#FFFFFF" d="M35.2,0H2.8C1.3,0,0,1.2,0,2.7v32.6C0,36.8,1.3,38,2.8,38h32.4c1.6,0,2.8-1.2,2.8-2.7V2.7
			C38,1.2,36.7,0,35.2,0z M31.9,24.4c-0.1,1.4-0.3,2.3-0.6,3.2c-0.3,0.9-0.8,1.6-1.5,2.3s-1.4,1.2-2.3,1.5c-0.8,0.3-1.8,0.5-3.2,0.6
			C23,32,22.5,32,19,32c-3.5,0-4,0-5.4-0.1c-1.4-0.1-2.3-0.3-3.2-0.6c-0.9-0.3-1.6-0.8-2.3-1.5S7,28.4,6.7,27.5
			c-0.3-0.8-0.5-1.8-0.6-3.2C6,23,6,22.5,6,19s0-4,0.1-5.4c0.1-1.4,0.3-2.3,0.6-3.2C7,9.6,7.5,8.9,8.2,8.2S9.6,7,10.5,6.7
			c0.8-0.3,1.8-0.5,3.2-0.6C15,6,15.5,6,19,6c3.5,0,4,0,5.4,0.1c1.4,0.1,2.3,0.3,3.2,0.6c0.9,0.3,1.6,0.8,2.3,1.5s1.2,1.4,1.5,2.3
			c0.3,0.8,0.5,1.8,0.6,3.2C32,15,32,15.5,32,19S32,23,31.9,24.4z"/>
	</g>
</g>
</svg>
