<?xml version="1.0" encoding="utf-8"?>
<!-- Generator: Adobe Illustrator 21.1.0, SVG Export Plug-In . SVG Version: 6.00 Build 0)  -->
<!DOCTYPE svg PUBLIC "-//W3C//DTD SVG 1.1//EN" "http://www.w3.org/Graphics/SVG/1.1/DTD/svg11.dtd">
<svg version="1.1" id="Layer_1" xmlns="http://www.w3.org/2000/svg" xmlns:xlink="http://www.w3.org/1999/xlink" x="0px" y="0px"
	 viewBox="0 0 42 42" enable-background="new 0 0 42 42" xml:space="preserve">
<g>
	<g>
		<path fill="#FFFFFF" d="M36.3,2.8H5.4c-1.5,0-2.7,1.2-2.7,2.6v31.1c0,1.4,1.2,2.6,2.7,2.6h30.9c1.5,0,2.7-1.2,2.7-2.6V5.4
			C39,3.9,37.8,2.8,36.3,2.8z M31.1,15.7c0,0.2,0,0.5,0,0.7c0,7-5.3,15-15,15c-3,0-5.8-0.9-8.1-2.4c0.4,0,0.8,0.1,1.3,0.1
			c2.5,0,4.8-0.8,6.6-2.3c-2.3,0-4.3-1.6-4.9-3.7c0.3,0.1,0.7,0.1,1,0.1c0.5,0,0.9-0.1,1.4-0.2C10.8,22.6,9,20.4,9,17.9
			c0,0,0,0,0-0.1c0.7,0.4,1.5,0.6,2.4,0.7C10,17.5,9,15.9,9,14.1c0-1,0.3-1.9,0.7-2.7c2.6,3.2,6.5,5.3,10.9,5.5
			c-0.1-0.4-0.1-0.8-0.1-1.2c0-2.9,2.4-5.3,5.3-5.3c1.5,0,2.9,0.6,3.9,1.7c1.2-0.2,2.3-0.7,3.4-1.3c-0.4,1.2-1.2,2.3-2.3,2.9
			c1.1-0.1,2.1-0.4,3-0.8C33,14,32.1,14.9,31.1,15.7z"/>
	</g>
</g>
</svg>
