<?xml version="1.0" encoding="utf-8"?>
<!-- Generator: Adobe Illustrator 18.0.0, SVG Export Plug-In . SVG Version: 6.00 Build 0)  -->
<!DOCTYPE svg PUBLIC "-//W3C//DTD SVG 1.1//EN" "http://www.w3.org/Graphics/SVG/1.1/DTD/svg11.dtd">
<svg version="1.1" id="Layer_1" xmlns="http://www.w3.org/2000/svg" xmlns:xlink="http://www.w3.org/1999/xlink" x="0px" y="0px"
	 viewBox="-194.4 2 560 208" enable-background="new -194.4 2 560 208" xml:space="preserve">
<g>
	<path fill="#FFFFFF" d="M-44.5,87.1l10.1-25.9l0,0c0,0,5.6,14.3,10,25.9L-44.5,87.1z M-34.4,21.9L-34.4,21.9l-48.5,113.2h19.7
		l13.2-33.9h31.2l13.2,33.9h19.7L-34.4,21.9z"/>
	<path fill="#FFFFFF" d="M-158,47.6h11.6c17.5,0,34.3,13,34.3,35.6s-16.8,35.6-34.3,35.6H-158V47.6z M-178.8,135.2h28.4
		c31.9,0,60.1-10.7,60.1-52s-28.1-52-60.1-52h-28.4V135.2z"/>
	<path fill="#FFFFFF" d="M345.6,114.7c-7.5,4.2-15.8,7.8-25.5,7.8c-12.4,0-21-7-21.9-19.4h53c0-26.8-8-46.3-36.5-46.3
		c-23.8,0-35.6,18.3-35.6,40.5c0,25.2,14.7,39.8,40.1,39.8c10.7,0,19.1-2.1,26.4-6.1L345.6,114.7L345.6,114.7z M298.2,89.4
		c0.9-10.3,6.6-18,17.7-18c11.2,0,15.6,8.4,16.2,18H298.2z M230.3,135.2h19.9v-28.2c0-11,0-31.3,16.2-31.3c3.6,0,7.2,0.6,9,1.6V57.4
		c-2.1-0.6-4.2-0.6-6.1-0.6c-11.9,0-20.1,12.1-21,19.2H248V58.6h-17.7V135.2z M162.2,95c0-11.5,6.3-22.8,19.2-22.8
		c13.1,0,19.4,11,19.4,22.8c0,12.8-4,26.5-19.4,26.5C166.2,121.5,162.2,107.7,162.2,95 M141.3,97.4c0,22.1,14.7,39.6,40.1,39.6
		c25.5,0,40.2-17.5,40.2-39.6c0-25.3-17.5-40.6-40.2-40.6C158.8,56.7,141.3,72.1,141.3,97.4 M21,135.2h19.9V98
		c0-10,1.6-25.8,14.9-25.8c11.5,0,11.5,10.2,11.5,17.3v45.8h19.9V98.1c0-10,1.6-25.8,14.9-25.8c11.5,0,11.5,10.2,11.5,17.3v45.8
		h19.9V86.9c0-17.1-5.4-30.1-24.3-30.1c-9.4,0-19.4,4.3-24,13.6C81,60.8,73.4,56.8,62.6,56.8c-7.5,0-16.5,3.1-22.8,12.5h-0.3V58.6
		H20.9L21,135.2L21,135.2L21,135.2z"/>
</g>
<polygon fill="#BE311A" points="-90.4,8.9 -55.4,8.9 -72.9,49.6 "/>
<path fill="#FFFFFF" d="M-156.3,166.1c0,3.5-1.1,6.1-3.2,7.9s-5.2,2.7-9.2,2.7h-2.9v11.4h-6.8V156h10.3c3.9,0,6.9,0.8,8.9,2.5
	C-157.3,160.2-156.3,162.7-156.3,166.1z M-171.6,171.2h2.2c2.1,0,3.7-0.4,4.7-1.2c1-0.8,1.6-2,1.6-3.6c0-1.6-0.4-2.8-1.3-3.5
	c-0.9-0.8-2.2-1.1-4.1-1.1h-3.1V171.2z"/>
<path fill="#FFFFFF" d="M-139.6,188.6c-4,0-7-1.1-9.3-3.3s-3.3-5.3-3.3-9.3c0-4.1,1-7.3,3.1-9.5c2.1-2.2,4.9-3.4,8.5-3.4
	c3.5,0,6.2,1,8.1,3s2.9,4.7,2.9,8.2v3.3h-15.8c0.1,1.9,0.6,3.4,1.7,4.5s2.5,1.6,4.4,1.6c1.5,0,2.9-0.2,4.2-0.5s2.7-0.8,4.1-1.5v5.2
	c-1.2,0.6-2.4,1-3.8,1.3C-136.1,188.5-137.7,188.6-139.6,188.6z M-140.6,167.9c-1.4,0-2.5,0.5-3.3,1.4c-0.8,0.9-1.3,2.2-1.4,3.8h9.4
	c0-1.7-0.5-2.9-1.3-3.8C-138,168.4-139.1,167.9-140.6,167.9z"/>
<path fill="#FFFFFF" d="M-110.4,163.1c0.9,0,1.7,0.1,2.3,0.2l-0.5,6.3c-0.5-0.1-1.2-0.2-2-0.2c-2.1,0-3.8,0.5-5,1.6
	c-1.2,1.1-1.8,2.6-1.8,4.6v12.5h-6.7v-24.6h5.1l1,4.1h0.3c0.8-1.4,1.8-2.5,3.1-3.3C-113.4,163.6-112,163.1-110.4,163.1z"/>
<path fill="#FFFFFF" d="M-86.6,180.9c0,2.5-0.9,4.4-2.6,5.8s-4.4,2-7.9,2c-1.8,0-3.3-0.1-4.6-0.4c-1.3-0.2-2.4-0.6-3.5-1.1v-5.5
	c1.2,0.6,2.6,1.1,4.2,1.5c1.6,0.4,2.9,0.6,4.1,0.6c2.4,0,3.6-0.7,3.6-2.1c0-0.5-0.2-1-0.5-1.3c-0.3-0.3-0.9-0.7-1.7-1.1
	c-0.8-0.4-1.8-0.9-3.2-1.5c-1.9-0.8-3.3-1.5-4.2-2.2c-0.9-0.7-1.5-1.4-1.9-2.3c-0.4-0.9-0.6-1.9-0.6-3.2c0-2.2,0.8-3.9,2.5-5.1
	c1.7-1.2,4.1-1.8,7.2-1.8c3,0,5.8,0.6,8.6,1.9l-2,4.8c-1.2-0.5-2.4-1-3.4-1.3s-2.2-0.5-3.3-0.5c-2,0-3,0.5-3,1.6
	c0,0.6,0.3,1.1,1,1.6c0.6,0.4,2,1.1,4.2,2c1.9,0.8,3.3,1.5,4.2,2.2s1.6,1.4,2,2.3S-86.6,179.6-86.6,180.9z"/>
<path fill="#FFFFFF" d="M-59,175.8c0,4-1.1,7.1-3.2,9.4s-5,3.4-8.8,3.4c-2.4,0-4.4-0.5-6.2-1.5c-1.8-1-3.2-2.5-4.2-4.4
	s-1.5-4.2-1.5-6.8c0-4,1-7.1,3.1-9.4c2.1-2.2,5-3.3,8.8-3.3c2.4,0,4.4,0.5,6.2,1.5s3.2,2.5,4.2,4.4S-59,173.3-59,175.8z M-76,175.8
	c0,2.4,0.4,4.3,1.2,5.5c0.8,1.2,2.1,1.9,3.9,1.9c1.8,0,3.1-0.6,3.9-1.9c0.8-1.2,1.2-3.1,1.2-5.5c0-2.4-0.4-4.3-1.2-5.5
	s-2.1-1.8-3.9-1.8c-1.8,0-3.1,0.6-3.9,1.8C-75.6,171.6-76,173.4-76,175.8z"/>
<path fill="#FFFFFF" d="M-30.8,188.2h-6.7v-14.3c0-1.8-0.3-3.1-0.9-4c-0.6-0.9-1.6-1.3-3-1.3c-1.9,0-3.2,0.6-4.1,1.9
	c-0.8,1.3-1.3,3.3-1.3,6.2v11.6h-6.7v-24.6h5.1l0.9,3.1h0.4c0.7-1.2,1.8-2.1,3.1-2.7c1.3-0.6,2.8-0.9,4.5-0.9c2.9,0,5,0.8,6.5,2.3
	c1.5,1.5,2.2,3.8,2.2,6.7V188.2z"/>
<path fill="#FFFFFF" d="M-8.3,188.2l-1.3-3.3h-0.2c-1.1,1.4-2.3,2.4-3.5,3c-1.2,0.5-2.7,0.8-4.7,0.8c-2.4,0-4.2-0.7-5.6-2
	s-2-3.3-2-5.8c0-2.6,0.9-4.5,2.7-5.8c1.8-1.2,4.6-1.9,8.3-2.1l4.3-0.1v-1.1c0-2.5-1.3-3.7-3.8-3.7c-2,0-4.3,0.6-6.9,1.8l-2.2-4.5
	c2.8-1.5,6-2.2,9.4-2.2c3.3,0,5.8,0.7,7.6,2.2c1.8,1.4,2.6,3.6,2.6,6.5v16.4H-8.3z M-10.3,176.8l-2.6,0.1c-1.9,0.1-3.4,0.4-4.4,1.1
	s-1.4,1.6-1.4,2.9c0,1.9,1.1,2.8,3.3,2.8c1.6,0,2.8-0.4,3.7-1.3s1.4-2.1,1.4-3.6V176.8z"/>
<path fill="#FFFFFF" d="M10,188.2H3.3V154H10V188.2z"/>
<path fill="#FFFFFF" d="M29.2,188.2V156H36v32.1H29.2z"/>
<path fill="#FFFFFF" d="M66.3,188.2h-6.7v-14.3c0-1.8-0.3-3.1-0.9-4c-0.6-0.9-1.6-1.3-3-1.3c-1.9,0-3.2,0.6-4.1,1.9
	c-0.8,1.3-1.3,3.3-1.3,6.2v11.6h-6.7v-24.6h5.1l0.9,3.1H50c0.7-1.2,1.8-2.1,3.1-2.7c1.3-0.6,2.8-0.9,4.5-0.9c2.9,0,5,0.8,6.5,2.3
	c1.5,1.5,2.2,3.8,2.2,6.7V188.2z"/>
<path fill="#FFFFFF" d="M71.2,199c-1.7,0-3.2-0.2-4.4-0.5v-5.3c1,0.3,2.1,0.4,3.1,0.4c1.1,0,2-0.3,2.5-0.9c0.5-0.6,0.8-1.6,0.8-2.8
	v-26.2h6.7v27.2c0,2.6-0.8,4.6-2.3,6C76.1,198.3,74,199,71.2,199z M72.9,157.2c0-2.2,1.2-3.3,3.6-3.3s3.6,1.1,3.6,3.3
	c0,1-0.3,1.8-0.9,2.4c-0.6,0.6-1.5,0.9-2.7,0.9C74.1,160.5,72.9,159.4,72.9,157.2z"/>
<path fill="#FFFFFF" d="M104.3,188.2l-0.9-3.1h-0.4c-0.7,1.1-1.7,2-3.1,2.6c-1.3,0.6-2.8,0.9-4.5,0.9c-2.9,0-5.1-0.8-6.5-2.3
	c-1.5-1.5-2.2-3.8-2.2-6.7v-16h6.7v14.3c0,1.8,0.3,3.1,0.9,4c0.6,0.9,1.6,1.3,3,1.3c1.9,0,3.2-0.6,4.1-1.9c0.8-1.3,1.3-3.3,1.3-6.2
	v-11.6h6.7v24.6H104.3z"/>
<path fill="#FFFFFF" d="M130.2,163.1c0.9,0,1.7,0.1,2.3,0.2l-0.5,6.3c-0.5-0.1-1.2-0.2-2-0.2c-2.1,0-3.8,0.5-5,1.6
	c-1.2,1.1-1.8,2.6-1.8,4.6v12.5h-6.7v-24.6h5.1l1,4.1h0.3c0.8-1.4,1.8-2.5,3.1-3.3C127.3,163.6,128.7,163.1,130.2,163.1z"/>
<path fill="#FFFFFF" d="M133.4,163.6h7.3l4.6,13.8c0.4,1.2,0.7,2.6,0.8,4.3h0.1c0.2-1.5,0.5-2.9,0.9-4.3l4.5-13.8h7.2l-10.4,27.7
	c-1,2.6-2.3,4.5-4.1,5.8c-1.8,1.3-3.8,1.9-6.2,1.9c-1.2,0-2.3-0.1-3.4-0.4v-5.3c0.8,0.2,1.7,0.3,2.6,0.3c1.2,0,2.2-0.4,3.1-1.1
	c0.9-0.7,1.6-1.8,2.1-3.3l0.4-1.2L133.4,163.6z"/>
<path fill="#FFFFFF" d="M174.7,188.2V156h6.8v26.5h13v5.6H174.7z"/>
<path fill="#FFFFFF" d="M215.2,188.2l-1.3-3.3h-0.2c-1.1,1.4-2.3,2.4-3.5,3c-1.2,0.5-2.8,0.8-4.7,0.8c-2.4,0-4.2-0.7-5.6-2
	c-1.4-1.3-2-3.3-2-5.8c0-2.6,0.9-4.5,2.7-5.8c1.8-1.2,4.6-1.9,8.3-2.1l4.3-0.1v-1.1c0-2.5-1.3-3.7-3.8-3.7c-2,0-4.3,0.6-6.9,1.8
	l-2.2-4.5c2.8-1.5,6-2.2,9.4-2.2c3.3,0,5.8,0.7,7.6,2.2c1.8,1.4,2.6,3.6,2.6,6.5v16.4H215.2z M213.2,176.8l-2.6,0.1
	c-1.9,0.1-3.4,0.4-4.4,1.1s-1.4,1.6-1.4,2.9c0,1.9,1.1,2.8,3.3,2.8c1.6,0,2.8-0.4,3.7-1.3c0.9-0.9,1.4-2.1,1.4-3.6V176.8z"/>
<path fill="#FFFFFF" d="M247,188.2l-1.9-8.6l-2.5-10.9h-0.2l-4.5,19.4h-7.2l-7-24.6h6.7l2.8,10.9c0.5,1.9,0.9,4.6,1.4,8.1h0.1
	c0.1-1.1,0.3-2.9,0.8-5.3l0.4-1.9l3-11.8h7.4l2.9,11.8c0.1,0.3,0.2,0.8,0.3,1.4c0.1,0.6,0.2,1.3,0.4,2c0.1,0.7,0.2,1.4,0.3,2.1
	c0.1,0.7,0.1,1.2,0.2,1.6h0.1c0.1-1.1,0.4-2.5,0.7-4.3c0.3-1.8,0.6-3.1,0.7-3.7l2.9-10.9h6.6l-7.1,24.6H247z"/>
<path fill="#FFFFFF" d="M271.9,183.4c-0.8,3-2.1,6.5-3.9,10.5h-4.8c1-3.9,1.7-7.6,2.2-11h6.2L271.9,183.4z"/>
<path fill="#FFFFFF" d="M289.5,188.2v-24.5h5.1v20.3h9.8v4.2H289.5z"/>
<path fill="#FFFFFF" d="M308.7,188.2v-24.5h5.1v20.3h9.8v4.2H308.7z"/>
<path fill="#FFFFFF" d="M338.2,167.8c-1.9,0-3.4,0.7-4.5,2.2c-1.1,1.5-1.6,3.5-1.6,6.1c0,5.4,2,8.1,6.1,8.1c1.7,0,3.8-0.4,6.2-1.3
	v4.3c-2,0.8-4.2,1.2-6.7,1.2c-3.5,0-6.2-1.1-8.1-3.2c-1.9-2.1-2.8-5.2-2.8-9.2c0-2.5,0.5-4.7,1.4-6.6c0.9-1.9,2.2-3.4,4-4.4
	c1.7-1,3.7-1.5,6.1-1.5c2.4,0,4.7,0.6,7.1,1.7l-1.7,4.2c-0.9-0.4-1.8-0.8-2.7-1.1S339.1,167.8,338.2,167.8z"/>
</svg>
