<svg xmlns="http://www.w3.org/2000/svg" width="1193.3" height="288.5" viewBox="0 0 1193.3 288.5">
  <g id="damore-personal-injury-law-llc-dark" transform="translate(-1 -2464.7)">
    <g id="Group_1" data-name="Group 1">
      <path id="Path_1" data-name="Path 1" d="M303.4,2640.7l22.7-58.3h0s12.6,32.3,22.6,58.2ZM326.2,2494h-.1L217,2748.9h44.4l29.7-76.3h70.2L391,2749h44.4Z" fill="#003663"/>
      <path id="Path_2" data-name="Path 2" d="M48,2551.9H74.1c39.3,0,77.2,29.2,77.2,80.1s-37.9,80.1-77.2,80.1H48ZM1,2749.1H65c71.7,0,135.2-24.1,135.2-117.1S136.9,2515,65,2515H1Z" fill="#003663"/>
      <path id="Path_3" data-name="Path 3" d="M1181.6,2702.8c-16.8,9.4-35.6,17.5-57.4,17.5-27.9,0-47.3-15.7-49.3-43.6h119.4c0-60.4-18.1-104.3-82.2-104.3-53.6,0-80.1,41.3-80.1,91.2,0,56.7,33.2,89.6,90.3,89.6,24.1,0,42.9-4.7,59.4-13.8l-.1-36.6Zm-106.7-57c2-23.1,14.8-40.6,39.9-40.6,25.2,0,35.2,18.8,36.5,40.6ZM922,2749.1h44.9v-63.4c0-24.8,0-70.4,36.5-70.4,8,0,16.1,1.4,20.2,3.7v-45.2c-4.7-1.4-9.4-1.4-13.8-1.4-26.8,0-45.2,27.2-47.3,43.3h-.6v-39.2H922Zm-153.3-90.5c0-25.9,14.1-51.3,43.3-51.3,29.5,0,43.6,24.8,43.6,51.3,0,28.8-9.1,59.7-43.6,59.7-34.2-.1-43.3-31.2-43.3-59.7m-47,5.3c0,49.7,33.2,89.2,90.3,89.2,57.4,0,90.6-39.5,90.6-89.2,0-57-39.3-91.5-90.6-91.5-51-.1-90.3,34.6-90.3,91.5m-270.9,85.2h44.9v-83.8c0-22.5,3.7-58.1,33.6-58.1,25.8,0,25.8,22.9,25.8,39v103H600v-83.8c0-22.5,3.7-58.1,33.6-58.1,25.8,0,25.8,22.9,25.8,39v103h44.9v-109c0-38.6-12.1-67.8-54.7-67.8-21.1,0-43.6,9.7-54,30.6-9.7-21.5-26.8-30.6-51-30.6-16.8,0-37.2,7-51.3,28.2h-.7v-24.1h-42v172.7h.2Z" fill="#003663"/>
    </g>
    <path id="Path_4" data-name="Path 4" d="M200,2464.7h78.8l-39.4,91.6Z" fill="#be311a"/>
  </g>
</svg>
