<svg xmlns="http://www.w3.org/2000/svg" width="225.718" height="80.961" viewBox="0 0 225.718 80.961">
  <g id="Group_46" data-name="Group 46" transform="translate(-35.282 -20.057)">
    <g id="Group_45" data-name="Group 45">
      <path id="Path_74" data-name="Path 74" d="M92.478,53.361l4.3-11.03h0s2.385,6.09,4.259,11.03Zm4.3-27.767h0L76.124,73.8h8.39l5.622-14.438h13.287L109.045,73.8h8.39Z" fill="#20244e"/>
      <path id="Path_75" data-name="Path 75" d="M44.14,36.539h4.94c7.453,0,14.608,5.536,14.608,15.161S56.533,66.862,49.08,66.862H44.14ZM35.282,73.846H47.377c13.586,0,25.6-4.557,25.6-22.146s-11.968-22.146-25.6-22.146H35.282Z" fill="#20244e"/>
      <path id="Path_76" data-name="Path 76" d="M258.615,65.116a22.029,22.029,0,0,1-10.86,3.321c-5.281,0-8.944-2.981-9.327-8.262H261c0-11.413-3.407-19.718-15.545-19.718-10.136,0-15.161,7.794-15.161,17.248,0,10.732,6.26,16.95,17.078,16.95a22.622,22.622,0,0,0,11.243-2.6V65.116ZM238.428,54.341c.383-4.387,2.811-7.666,7.538-7.666,4.77,0,6.644,3.577,6.9,7.666ZM209.511,73.846h8.475V61.836c0-4.684,0-13.33,6.9-13.33a9.077,9.077,0,0,1,3.833.682V40.712a9.291,9.291,0,0,0-2.6-.255c-5.068,0-8.56,5.153-8.943,8.177h-.128v-7.41h-7.538Zm-29-17.12c0-4.9,2.683-9.71,8.177-9.71,5.579,0,8.262,4.684,8.262,9.71,0,5.451-1.7,11.286-8.262,11.286-6.473,0-8.177-5.878-8.177-11.286m-8.9,1.022c0,9.412,6.261,16.865,17.078,16.865,10.86,0,17.121-7.453,17.121-16.865,0-10.775-7.453-17.291-17.121-17.291-9.625-.043-17.078,6.516-17.078,17.291m-51.234,16.1h8.475V58c0-4.259.682-10.987,6.346-10.987,4.9,0,4.9,4.344,4.9,7.367V73.889h8.475V58.046c0-4.259.681-10.988,6.345-10.988,4.9,0,4.9,4.344,4.9,7.368V73.931h8.475V53.276c0-7.283-2.3-12.819-10.349-12.819-4,0-8.262,1.831-10.221,5.792-1.789-4.089-5.025-5.792-9.625-5.792a11.491,11.491,0,0,0-9.71,5.323h-.128V41.224h-7.921l.042,32.622Z" fill="#20244e"/>
    </g>
    <path id="Path_77" data-name="Path 77" d="M72.93,20.057H87.836L80.383,37.391Z" fill="#b72f00"/>
    <path id="Path_78" data-name="Path 78" d="M44.864,87.006A4.175,4.175,0,0,1,43.5,90.37a5.888,5.888,0,0,1-3.918,1.15H38.348v4.855h-2.9V82.705h4.387a5.747,5.747,0,0,1,3.79,1.064A4.111,4.111,0,0,1,44.864,87.006Zm-6.516,2.172h.937a3.217,3.217,0,0,0,2-.511,1.871,1.871,0,0,0,.681-1.533,1.786,1.786,0,0,0-.553-1.491,2.521,2.521,0,0,0-1.747-.468h-1.32v4Z" fill="#20244e"/>
    <path id="Path_79" data-name="Path 79" d="M51.976,96.588a5.421,5.421,0,0,1-3.96-1.4,5.189,5.189,0,0,1-1.406-3.961,5.649,5.649,0,0,1,1.321-4.046,4.773,4.773,0,0,1,3.62-1.448A4.53,4.53,0,0,1,55,87.006,4.852,4.852,0,0,1,56.235,90.5V91.9H49.506a2.787,2.787,0,0,0,.724,1.916A2.477,2.477,0,0,0,52.1,94.5a7.9,7.9,0,0,0,3.535-.852v2.214a6.585,6.585,0,0,1-1.618.554A9.388,9.388,0,0,1,51.976,96.588Zm-.425-8.815a1.8,1.8,0,0,0-1.406.6,2.647,2.647,0,0,0-.6,1.618h4A2.319,2.319,0,0,0,53,88.369,1.831,1.831,0,0,0,51.551,87.773Z" fill="#20244e"/>
    <path id="Path_80" data-name="Path 80" d="M64.412,85.728a5.928,5.928,0,0,1,.98.086L65.179,88.5a4.353,4.353,0,0,0-.852-.086,3.047,3.047,0,0,0-2.129.682,2.5,2.5,0,0,0-.767,1.959v5.323H58.578V85.9H60.75l.426,1.746H61.3a3.822,3.822,0,0,1,1.321-1.406A3.518,3.518,0,0,1,64.412,85.728Z" fill="#20244e"/>
    <path id="Path_81" data-name="Path 81" d="M74.548,93.309a3.021,3.021,0,0,1-1.107,2.47,5.3,5.3,0,0,1-3.364.852,8.877,8.877,0,0,1-1.96-.17,5.571,5.571,0,0,1-1.49-.469V93.65a8.807,8.807,0,0,0,1.789.639,7.2,7.2,0,0,0,1.746.255q1.533,0,1.533-.894a.81.81,0,0,0-.213-.554,3,3,0,0,0-.724-.468c-.341-.171-.767-.384-1.363-.639a8.391,8.391,0,0,1-1.789-.937,2.5,2.5,0,0,1-.809-.98,3.246,3.246,0,0,1-.255-1.362,2.487,2.487,0,0,1,1.064-2.173,5.266,5.266,0,0,1,3.067-.766,8.487,8.487,0,0,1,3.662.809l-.851,2.044c-.511-.213-1.023-.426-1.448-.553a5.093,5.093,0,0,0-1.406-.213c-.852,0-1.277.213-1.277.681a.824.824,0,0,0,.425.682,12.145,12.145,0,0,0,1.789.851,8.366,8.366,0,0,1,1.789.937,2.641,2.641,0,0,1,.852.98A3.013,3.013,0,0,1,74.548,93.309Z" fill="#20244e"/>
    <path id="Path_82" data-name="Path 82" d="M86.3,91.137a5.7,5.7,0,0,1-1.363,4,4.786,4.786,0,0,1-3.748,1.448,5.276,5.276,0,0,1-2.64-.638,4.473,4.473,0,0,1-1.789-1.874,6.183,6.183,0,0,1-.639-2.9,5.682,5.682,0,0,1,1.32-4,4.915,4.915,0,0,1,3.748-1.4,5.272,5.272,0,0,1,2.641.639,4.471,4.471,0,0,1,1.788,1.874A6.133,6.133,0,0,1,86.3,91.137Zm-7.24,0a4.341,4.341,0,0,0,.511,2.342,1.876,1.876,0,0,0,1.661.81,1.787,1.787,0,0,0,1.661-.81,5.622,5.622,0,0,0,0-4.684,2.182,2.182,0,0,0-3.322,0A4.441,4.441,0,0,0,79.063,91.137Z" fill="#20244e"/>
    <path id="Path_83" data-name="Path 83" d="M98.313,96.418H95.459v-6.09a3.063,3.063,0,0,0-.383-1.7,1.411,1.411,0,0,0-1.278-.553,1.933,1.933,0,0,0-1.746.809,5.074,5.074,0,0,0-.554,2.64v4.941H88.645V85.984h2.172L91.2,87.3h.171a2.9,2.9,0,0,1,1.32-1.15,4.535,4.535,0,0,1,1.916-.383,3.717,3.717,0,0,1,2.769.979,3.916,3.916,0,0,1,.937,2.854Z" fill="#20244e"/>
    <path id="Path_84" data-name="Path 84" d="M107.895,96.418l-.554-1.4h-.085a4.5,4.5,0,0,1-1.49,1.277,5.136,5.136,0,0,1-2,.341,3.328,3.328,0,0,1-2.385-.852,3.233,3.233,0,0,1-.852-2.47,2.833,2.833,0,0,1,1.15-2.47,7.227,7.227,0,0,1,3.535-.894l1.831-.043v-.469a1.411,1.411,0,0,0-1.618-1.575,7.172,7.172,0,0,0-2.939.766l-.937-1.916a8.41,8.41,0,0,1,4-.937,4.886,4.886,0,0,1,3.236.937,3.282,3.282,0,0,1,1.108,2.768v6.985h-2Zm-.852-4.855-1.107.043a3.658,3.658,0,0,0-1.874.468,1.359,1.359,0,0,0-.6,1.235c0,.809.468,1.193,1.4,1.193a1.984,1.984,0,0,0,2.172-2.087Z" fill="#20244e"/>
    <path id="Path_85" data-name="Path 85" d="M115.689,96.418h-2.854V81.853h2.854Z" fill="#20244e"/>
    <path id="Path_86" data-name="Path 86" d="M123.866,96.418V82.705h2.9v13.67h-2.9Z" fill="#20244e"/>
    <path id="Path_87" data-name="Path 87" d="M139.666,96.418h-2.854v-6.09a3.055,3.055,0,0,0-.383-1.7,1.409,1.409,0,0,0-1.278-.553,1.934,1.934,0,0,0-1.746.809,5.086,5.086,0,0,0-.553,2.64v4.941H130V85.984h2.172l.384,1.32h.17a2.907,2.907,0,0,1,1.32-1.15,4.54,4.54,0,0,1,1.917-.383,3.715,3.715,0,0,1,2.768.979,3.912,3.912,0,0,1,.937,2.854Z" fill="#20244e"/>
    <path id="Path_88" data-name="Path 88" d="M141.753,101.018a7.872,7.872,0,0,1-1.874-.213V98.547a4.675,4.675,0,0,0,1.32.171,1.354,1.354,0,0,0,1.065-.384,1.891,1.891,0,0,0,.34-1.192V85.984h2.854V97.568a3.334,3.334,0,0,1-.98,2.555A3.821,3.821,0,0,1,141.753,101.018Zm.724-17.8q0-1.406,1.533-1.406t1.533,1.406a1.385,1.385,0,0,1-.383,1.022,1.565,1.565,0,0,1-1.15.383Q142.477,84.621,142.477,83.216Z" fill="#20244e"/>
    <path id="Path_89" data-name="Path 89" d="M155.849,96.418l-.383-1.32h-.17a2.851,2.851,0,0,1-1.32,1.107,4.525,4.525,0,0,1-1.917.383,3.644,3.644,0,0,1-2.768-.979,3.912,3.912,0,0,1-.937-2.854V85.941h2.853v6.09a3.052,3.052,0,0,0,.384,1.7,1.409,1.409,0,0,0,1.277.554,1.933,1.933,0,0,0,1.746-.81,5.072,5.072,0,0,0,.554-2.64V85.9h2.853V96.375h-2.172Z" fill="#20244e"/>
    <path id="Path_90" data-name="Path 90" d="M166.88,85.728a5.915,5.915,0,0,1,.979.086l-.213,2.683a4.35,4.35,0,0,0-.851-.086,3.048,3.048,0,0,0-2.13.682,2.5,2.5,0,0,0-.766,1.959v5.323h-2.854V85.9h2.172l.426,1.746h.128a3.82,3.82,0,0,1,1.32-1.406A3.782,3.782,0,0,1,166.88,85.728Z" fill="#20244e"/>
    <path id="Path_91" data-name="Path 91" d="M168.243,85.941h3.109l1.959,5.877a7.026,7.026,0,0,1,.34,1.832h.043a12.737,12.737,0,0,1,.383-1.832l1.917-5.877h3.066l-4.429,11.8a5.192,5.192,0,0,1-1.746,2.47,4.32,4.32,0,0,1-2.641.81,5.391,5.391,0,0,1-1.448-.171V98.59a4.654,4.654,0,0,0,1.108.128,2.081,2.081,0,0,0,1.32-.469,2.871,2.871,0,0,0,.894-1.4l.171-.511Z" fill="#20244e"/>
    <path id="Path_92" data-name="Path 92" d="M185.832,96.418V82.705h2.9V93.99h5.536v2.385h-8.432Z" fill="#20244e"/>
    <path id="Path_93" data-name="Path 93" d="M203.08,96.418l-.554-1.4h-.085a4.5,4.5,0,0,1-1.491,1.277,5.283,5.283,0,0,1-2,.341,3.328,3.328,0,0,1-2.385-.852,3.233,3.233,0,0,1-.852-2.47,2.833,2.833,0,0,1,1.15-2.47,7.227,7.227,0,0,1,3.535-.894l1.831-.043v-.469a1.412,1.412,0,0,0-1.618-1.575,7.168,7.168,0,0,0-2.939.766l-.937-1.916a8.41,8.41,0,0,1,4-.937,4.886,4.886,0,0,1,3.236.937,3.282,3.282,0,0,1,1.108,2.768v6.985h-2Zm-.852-4.855-1.107.043a3.658,3.658,0,0,0-1.874.468,1.359,1.359,0,0,0-.6,1.235c0,.809.468,1.193,1.4,1.193a1.984,1.984,0,0,0,2.172-2.087Z" fill="#20244e"/>
    <path id="Path_94" data-name="Path 94" d="M216.623,96.418l-.809-3.663-1.065-4.642h-.085l-1.917,8.262h-3.066L206.7,85.9h2.853l1.193,4.642a34.51,34.51,0,0,1,.6,3.449h.043a19.365,19.365,0,0,1,.34-2.257l.171-.809,1.277-5.025h3.152l1.235,5.025a4.712,4.712,0,0,1,.128.6,7.4,7.4,0,0,0,.17.852l.128.894c.042.3.042.512.085.682h.043c.042-.469.17-1.065.3-1.831s.255-1.321.3-1.576l1.235-4.642h2.811l-3.024,10.476h-3.109Z" fill="#20244e"/>
    <path id="Path_95" data-name="Path 95" d="M227.227,94.374a30.07,30.07,0,0,1-1.66,4.472h-2.045a45.5,45.5,0,0,0,.937-4.685H227.1Z" fill="#20244e"/>
    <path id="Path_96" data-name="Path 96" d="M234.723,96.418V85.984H236.9v8.645h4.174v1.789Z" fill="#20244e"/>
    <path id="Path_97" data-name="Path 97" d="M242.9,96.418V85.984h2.172v8.645h4.174v1.789Z" fill="#20244e"/>
    <path id="Path_98" data-name="Path 98" d="M255.464,87.73a2.232,2.232,0,0,0-1.917.937,4.281,4.281,0,0,0-.681,2.6c0,2.3.851,3.449,2.6,3.449a7.707,7.707,0,0,0,2.64-.553v1.831a7.566,7.566,0,0,1-2.853.511,4.424,4.424,0,0,1-3.45-1.363,5.676,5.676,0,0,1-1.193-3.918,6.494,6.494,0,0,1,.6-2.811,4.045,4.045,0,0,1,1.7-1.873,5,5,0,0,1,2.6-.639,7.147,7.147,0,0,1,3.024.724l-.724,1.788c-.383-.17-.767-.34-1.15-.468A3.9,3.9,0,0,0,255.464,87.73Z" fill="#20244e"/>
  </g>
</svg>
