<?xml version="1.0" encoding="utf-8"?>
<!-- Generator: Adobe Illustrator 24.1.0, SVG Export Plug-In . SVG Version: 6.00 Build 0)  -->
<svg version="1.1" id="Layer_1" xmlns="http://www.w3.org/2000/svg" xmlns:xlink="http://www.w3.org/1999/xlink" x="0px" y="0px"
	 viewBox="0 0 100 80" style="enable-background:new 0 0 100 80;" xml:space="preserve">
<style type="text/css">
	.st0{fill:#161B35;}
	.st1{fill:#EAEBEF;}
	.st2{fill:#20244E;}
	.st3{fill:#B72F00;}
	.st4{fill:#FFFFFF;}
	.st5{fill:none;stroke:#20244E;stroke-width:3;stroke-linejoin:round;stroke-miterlimit:10;}
	.st6{fill:none;stroke:#20244E;stroke-width:3;stroke-linecap:round;stroke-linejoin:round;stroke-miterlimit:10;}
	.st7{fill:none;stroke:#FFFFFF;stroke-width:2;stroke-linecap:round;stroke-miterlimit:10;}
	.st8{fill:none;stroke:#EB1C24;stroke-width:4;stroke-miterlimit:10;}
	.st9{fill:none;stroke:#20244E;stroke-miterlimit:10;}
	.st10{fill:#F9AE3B;}
	.st11{fill:none;stroke:#FFFFFF;stroke-width:2;stroke-miterlimit:10;}
	.st12{fill:none;stroke:#20244E;stroke-width:2;stroke-miterlimit:10;}
	.st13{fill:#1A1A1A;}
	.st14{opacity:0.5;fill:#FFFFFF;}
	.st15{fill:none;stroke:#FFFFFF;stroke-miterlimit:10;}
	.st16{fill:#009045;}
	.st17{filter:url(#Adobe_OpacityMaskFilter);}
	.st18{fill-rule:evenodd;clip-rule:evenodd;fill:#FFFFFF;}
	.st19{mask:url(#mask-2_1_);fill-rule:evenodd;clip-rule:evenodd;fill:#20244E;}
	.st20{fill:#FFFFFF;stroke:#20244E;stroke-miterlimit:10;}
	.st21{fill:#0071BA;}
	.st22{fill:#F3B52C;}
	.st23{fill:none;stroke:#20244E;stroke-width:2;stroke-linecap:round;stroke-miterlimit:10;}
	.st24{fill:none;stroke:#FAEC21;stroke-width:6;stroke-miterlimit:10;}
	.st25{fill:#B1B1B1;}
	.st26{opacity:0.6;fill:#333333;}
	.st27{opacity:0.4;fill:#333333;}
	.st28{fill-rule:evenodd;clip-rule:evenodd;fill:none;stroke:#20244E;stroke-width:3;stroke-miterlimit:10;}
	.st29{fill:none;stroke:#20244E;stroke-width:3;stroke-miterlimit:10;}
	.st30{fill:none;stroke:#20244E;stroke-width:3;stroke-linecap:round;stroke-miterlimit:10;}
	.st31{fill-rule:evenodd;clip-rule:evenodd;fill:#20244E;}
	.st32{fill:#20244E;stroke:#20244E;stroke-width:0.25;stroke-miterlimit:10;}
</style>
<g>
	<path class="st2" d="M8,64.2h19.3c0.8,0,1.5-0.7,1.5-1.5s-0.7-1.5-1.5-1.5H8c-0.8,0-1.5,0.7-1.5,1.5S7.2,64.2,8,64.2z"/>
	<path class="st2" d="M33,67.9H8c-0.8,0-1.5,0.7-1.5,1.5C6.5,70.3,7.2,71,8,71H33c0.8,0,1.5-0.7,1.5-1.5
		C34.5,68.6,33.8,67.9,33,67.9z"/>
	<path class="st2" d="M39.8,54.3H8c-0.8,0-1.5,0.7-1.5,1.5s0.7,1.5,1.5,1.5h31.7c0.8,0,1.5-0.7,1.5-1.5S40.6,54.3,39.8,54.3z"/>
</g>
<g>
	<path class="st2" d="M18.2,23.8c0.3,2.7,2.4,4.9,5.1,5.1c0.2,0,0.4,0,0.6,0c3,0,5.4-2.2,5.7-5.2l0.3-2.6c0-0.2,0-0.4,0-0.6
		c0-1.5-0.6-3-1.7-4.1c-1.1-1.1-2.5-1.7-4.1-1.7h-0.5c-0.2,0-0.4,0-0.6,0c-1.5,0.2-2.9,0.9-3.9,2.1c-1,1.2-1.4,2.7-1.3,4.2
		L18.2,23.8z M20.9,20.6c0-1.5,1.2-2.8,2.8-2.8h0.5c0.1,0,0.2,0,0.3,0c0.7,0.1,1.4,0.4,1.9,1c0.5,0.6,0.7,1.3,0.6,2l-0.3,2.6
		c-0.1,1.3-1.2,2.3-2.5,2.5c-0.7,0.1-1.4-0.1-2-0.6c-0.6-0.5-0.9-1.1-1-1.9l-0.3-2.6C20.9,20.8,20.9,20.7,20.9,20.6z"/>
	<path class="st2" d="M14.8,44.9c0.8,0,1.5-0.7,1.5-1.5v-8.7c0-0.6,0.5-1.1,1.1-1.1h12.8c0.6,0,1.1,0.5,1.1,1.1v8.7
		c0,0.8,0.7,1.5,1.5,1.5s1.5-0.7,1.5-1.5v-8.7c0-2.3-1.9-4.2-4.2-4.2H17.5c-2.3,0-4.2,1.9-4.2,4.2v8.7C13.3,44.2,14,44.9,14.8,44.9z
		"/>
	<path class="st2" d="M39.8,7.9H8c-0.8,0-1.5,0.7-1.5,1.5v39.6c0,0.8,0.7,1.5,1.5,1.5h31.7c0.8,0,1.5-0.7,1.5-1.5V9.4
		C41.3,8.6,40.6,7.9,39.8,7.9z M38.2,10.9v36.6H9.5V10.9H38.2z"/>
</g>
<g>
	<path class="st2" d="M53.3,64.2h7.9c0.8,0,1.5-0.7,1.5-1.5s-0.7-1.5-1.5-1.5h-7.9c-0.8,0-1.5,0.7-1.5,1.5S52.5,64.2,53.3,64.2z"/>
	<path class="st2" d="M53.3,50.6h3.4c0.8,0,1.5-0.7,1.5-1.5c0-0.8-0.7-1.5-1.5-1.5h-1.9V10.9h28.7v16.6c0,0.8,0.7,1.5,1.5,1.5
		s1.5-0.7,1.5-1.5V9.4c0-0.8-0.7-1.5-1.5-1.5H53.3c-0.8,0-1.5,0.7-1.5,1.5v39.6C51.8,49.9,52.5,50.6,53.3,50.6z"/>
	<path class="st2" d="M68.9,14.8c-0.2,0-0.4,0-0.6,0c-3.2,0.3-5.5,3.2-5.1,6.3l0.3,2.6c0.3,2.9,2.8,5.2,5.7,5.2c3,0,5.4-2.2,5.7-5.2
		l0.3-2.6c0-0.2,0-0.4,0-0.6c0-1.5-0.6-3-1.7-4.1c-1.1-1.1-2.5-1.7-4.1-1.7H68.9z M69.5,17.9c0.1,0,0.2,0,0.3,0
		c0.7,0.1,1.4,0.4,1.9,1c0.5,0.6,0.7,1.3,0.6,2l-0.3,2.6c-0.1,1.4-1.3,2.5-2.7,2.5c-1.4,0-2.6-1.1-2.7-2.5l-0.3-2.6
		c0-0.1,0-0.2,0-0.3c0-1.5,1.2-2.8,2.8-2.8H69.5z"/>
	<path class="st2" d="M53.3,57.4h4.5c0.8,0,1.5-0.7,1.5-1.5s-0.7-1.5-1.5-1.5h-4.5c-0.8,0-1.5,0.7-1.5,1.5S52.5,57.4,53.3,57.4z"/>
	<path class="st2" d="M46.6,10.2c-0.8,0-1.5,0.7-1.5,1.5v4.5c0,0.8,0.7,1.5,1.5,1.5s1.5-0.7,1.5-1.5v-4.5
		C48.1,10.9,47.4,10.2,46.6,10.2z"/>
	<path class="st2" d="M71.7,67.9H53.3c-0.8,0-1.5,0.7-1.5,1.5c0,0.8,0.7,1.5,1.5,1.5h18.4c0.8,0,1.5-0.7,1.5-1.5
		C73.2,68.6,72.6,67.9,71.7,67.9z"/>
	<path class="st2" d="M46.6,23.8c-0.8,0-1.5,0.7-1.5,1.5v4.5c0,0.8,0.7,1.5,1.5,1.5s1.5-0.7,1.5-1.5v-4.5
		C48.1,24.4,47.4,23.8,46.6,23.8z"/>
	<path class="st2" d="M78.3,30.6H62.8c-2.3,0-4.2,1.9-4.2,4.2v4.1c0,0.8,0.7,1.5,1.5,1.5s1.5-0.7,1.5-1.5v-4.1
		c0-0.6,0.5-1.1,1.1-1.1h5.3c-5.2,3.4-8.4,9.3-8.4,15.5c0,10.2,8.3,18.5,18.5,18.5c10.2,0,18.5-8.3,18.5-18.5
		C96.8,38.9,88.5,30.6,78.3,30.6z M78.3,64.5c-8.5,0-15.5-6.9-15.5-15.5c0-8.5,6.9-15.5,15.5-15.5c8.5,0,15.5,6.9,15.5,15.5
		C93.7,57.6,86.8,64.5,78.3,64.5z"/>
	<path class="st2" d="M46.6,64.5c-0.8,0-1.5,0.7-1.5,1.5v4.5c0,0.8,0.7,1.5,1.5,1.5s1.5-0.7,1.5-1.5v-4.5
		C48.1,65.2,47.4,64.5,46.6,64.5z"/>
	<path class="st2" d="M46.6,51c-0.8,0-1.5,0.7-1.5,1.5V57c0,0.8,0.7,1.5,1.5,1.5s1.5-0.7,1.5-1.5v-4.5C48.1,51.6,47.4,51,46.6,51z"
		/>
	<path class="st2" d="M46.6,37.4c-0.8,0-1.5,0.7-1.5,1.5v4.5c0,0.8,0.7,1.5,1.5,1.5s1.5-0.7,1.5-1.5v-4.5
		C48.1,38,47.4,37.4,46.6,37.4z"/>
	<path class="st2" d="M85.7,41.8L74.9,52.7l-4.1-4.1c-0.5-0.5-1.4-0.5-1.9,0c-0.5,0.5-0.5,1.4,0,1.9l6.1,6.1l12.8-12.8
		c0.5-0.5,0.5-1.4,0-1.9C87.2,41.3,86.3,41.3,85.7,41.8z"/>
</g>
</svg>
