<?xml version="1.0" encoding="utf-8"?>
<!-- Generator: Adobe Illustrator 24.1.0, SVG Export Plug-In . SVG Version: 6.00 Build 0)  -->
<svg version="1.1" id="Layer_1" xmlns="http://www.w3.org/2000/svg" xmlns:xlink="http://www.w3.org/1999/xlink" x="0px" y="0px"
	 viewBox="0 0 100 80" style="enable-background:new 0 0 100 80;" xml:space="preserve">
<style type="text/css">
	.st0{fill:#161B35;}
	.st1{fill:#EAEBEF;}
	.st2{fill:#20244E;}
	.st3{fill:#B72F00;}
	.st4{fill:#FFFFFF;}
	.st5{fill:none;stroke:#20244E;stroke-width:3;stroke-linejoin:round;stroke-miterlimit:10;}
	.st6{fill:none;stroke:#20244E;stroke-width:3;stroke-linecap:round;stroke-linejoin:round;stroke-miterlimit:10;}
	.st7{fill:none;stroke:#FFFFFF;stroke-width:2;stroke-linecap:round;stroke-miterlimit:10;}
	.st8{fill:none;stroke:#EB1C24;stroke-width:4;stroke-miterlimit:10;}
	.st9{fill:none;stroke:#20244E;stroke-miterlimit:10;}
	.st10{fill:#F9AE3B;}
	.st11{fill:none;stroke:#FFFFFF;stroke-width:2;stroke-miterlimit:10;}
	.st12{fill:none;stroke:#20244E;stroke-width:2;stroke-miterlimit:10;}
	.st13{fill:#1A1A1A;}
	.st14{opacity:0.5;fill:#FFFFFF;}
	.st15{fill:none;stroke:#FFFFFF;stroke-miterlimit:10;}
	.st16{fill:#009045;}
	.st17{filter:url(#Adobe_OpacityMaskFilter);}
	.st18{fill-rule:evenodd;clip-rule:evenodd;fill:#FFFFFF;}
	.st19{mask:url(#mask-2_1_);fill-rule:evenodd;clip-rule:evenodd;fill:#20244E;}
	.st20{fill:#FFFFFF;stroke:#20244E;stroke-miterlimit:10;}
	.st21{fill:#0071BA;}
	.st22{fill:#F3B52C;}
	.st23{fill:none;stroke:#20244E;stroke-width:2;stroke-linecap:round;stroke-miterlimit:10;}
	.st24{fill:none;stroke:#FAEC21;stroke-width:6;stroke-miterlimit:10;}
	.st25{fill:#B1B1B1;}
	.st26{opacity:0.6;fill:#333333;}
	.st27{opacity:0.4;fill:#333333;}
	.st28{fill-rule:evenodd;clip-rule:evenodd;fill:none;stroke:#20244E;stroke-width:3;stroke-miterlimit:10;}
	.st29{fill:none;stroke:#20244E;stroke-width:3;stroke-miterlimit:10;}
</style>
<g>
	<path class="st2" d="M70.3,76.1h-35V2.8l35,19.7V76.1z M38.3,73.1h29V24.2l-29-16.3V73.1z"/>
</g>
<g>
	<path class="st2" d="M88.1,76.1H67.3V39.7h20.8V76.1z M70.3,73.1h14.8V42.7H70.3V73.1z"/>
</g>
<g>
	<rect x="41.2" y="18.3" class="st2" width="7" height="3"/>
</g>
<g>
	<rect x="73.3" y="46.9" class="st2" width="9.1" height="3"/>
</g>
<g>
	<rect x="73.3" y="54" class="st2" width="9.1" height="3"/>
</g>
<g>
	<rect x="73.3" y="61.2" class="st2" width="9.1" height="3"/>
</g>
<g>
	<path class="st2" d="M38.3,76.1H15.9V32.6h22.4V76.1z M18.9,73.1h16.4V35.6H18.9V73.1z"/>
</g>
<g>
	<rect x="22.7" y="46.9" class="st2" width="9.1" height="3"/>
</g>
<g>
	<rect x="22.7" y="39.7" class="st2" width="9.1" height="3"/>
</g>
<g>
	<rect x="22.7" y="54" class="st2" width="9.1" height="3"/>
</g>
<g>
	<rect x="22.7" y="61.2" class="st2" width="9.1" height="3"/>
</g>
<g>
	<rect x="41.2" y="46.9" class="st2" width="9.1" height="3"/>
</g>
<g>
	<rect x="41.2" y="39.7" class="st2" width="9.1" height="3"/>
</g>
<g>
	<rect x="41.2" y="54" class="st2" width="9.1" height="3"/>
</g>
<g>
	<rect x="41.2" y="61.2" class="st2" width="9.1" height="3"/>
</g>
<g>
	<rect x="55" y="46.9" class="st2" width="9.1" height="3"/>
</g>
<g>
	<rect x="55" y="39.7" class="st2" width="9.1" height="3"/>
</g>
<g>
	<rect x="41.2" y="32.6" class="st2" width="9.1" height="3"/>
</g>
<g>
	<rect x="41.2" y="25.5" class="st2" width="9.1" height="3"/>
</g>
<g>
	<rect x="55" y="32.6" class="st2" width="9.1" height="3"/>
</g>
<g>
	<rect x="55" y="25.5" class="st2" width="9.1" height="3"/>
</g>
<g>
	<rect x="55" y="54" class="st2" width="9.1" height="3"/>
</g>
<g>
	<rect x="55" y="61.2" class="st2" width="9.1" height="3"/>
</g>
</svg>
