<?xml version="1.0" encoding="utf-8"?>
<!-- Generator: Adobe Illustrator 24.1.0, SVG Export Plug-In . SVG Version: 6.00 Build 0)  -->
<svg version="1.1" id="Layer_1" xmlns="http://www.w3.org/2000/svg" xmlns:xlink="http://www.w3.org/1999/xlink" x="0px" y="0px"
	 viewBox="0 0 100 80" style="enable-background:new 0 0 100 80;" xml:space="preserve">
<style type="text/css">
	.st0{fill:#161B35;}
	.st1{fill:#EAEBEF;}
	.st2{fill:#20244E;}
	.st3{fill:#B72F00;}
	.st4{fill:#FFFFFF;}
	.st5{fill:none;stroke:#20244E;stroke-width:3;stroke-linejoin:round;stroke-miterlimit:10;}
	.st6{fill:none;stroke:#20244E;stroke-width:3;stroke-linecap:round;stroke-linejoin:round;stroke-miterlimit:10;}
	.st7{fill:none;stroke:#FFFFFF;stroke-width:2;stroke-linecap:round;stroke-miterlimit:10;}
	.st8{fill:none;stroke:#EB1C24;stroke-width:4;stroke-miterlimit:10;}
	.st9{fill:none;stroke:#20244E;stroke-miterlimit:10;}
	.st10{fill:#F9AE3B;}
	.st11{fill:none;stroke:#FFFFFF;stroke-width:2;stroke-miterlimit:10;}
	.st12{fill:none;stroke:#20244E;stroke-width:2;stroke-miterlimit:10;}
	.st13{fill:#1A1A1A;}
	.st14{opacity:0.5;fill:#FFFFFF;}
	.st15{fill:none;stroke:#FFFFFF;stroke-miterlimit:10;}
	.st16{fill:#009045;}
	.st17{filter:url(#Adobe_OpacityMaskFilter);}
	.st18{fill-rule:evenodd;clip-rule:evenodd;fill:#FFFFFF;}
	.st19{mask:url(#mask-2_1_);fill-rule:evenodd;clip-rule:evenodd;fill:#20244E;}
	.st20{fill:#FFFFFF;stroke:#20244E;stroke-miterlimit:10;}
	.st21{fill:#0071BA;}
	.st22{fill:#F3B52C;}
	.st23{fill:none;stroke:#20244E;stroke-width:2;stroke-linecap:round;stroke-miterlimit:10;}
	.st24{fill:none;stroke:#FAEC21;stroke-width:6;stroke-miterlimit:10;}
	.st25{fill:#B1B1B1;}
	.st26{opacity:0.6;fill:#333333;}
	.st27{opacity:0.4;fill:#333333;}
	.st28{fill-rule:evenodd;clip-rule:evenodd;fill:none;stroke:#20244E;stroke-width:3;stroke-miterlimit:10;}
	.st29{fill:none;stroke:#20244E;stroke-width:3;stroke-miterlimit:10;}
	.st30{fill:none;stroke:#20244E;stroke-width:3;stroke-linecap:round;stroke-miterlimit:10;}
	.st31{fill-rule:evenodd;clip-rule:evenodd;fill:#20244E;}
</style>
<g transform="translate(0,-1020.3622)">
	<path class="st31" d="M54.9,1055.4c-0.7,0-1.3,0.7-1.2,1.4c0,0.5,0.3,0.9,0.8,1.1l21.4,9.8c2.9,1.4,6.4,3.2,9.7,5
		c1.6,0.9,2.7,3.1,1.4,5.4c0,0,0,0,0,0c-1,1.8-3.2,2.6-5.1,1.6h0c-3.3-1.9-6.5-3.9-9.6-6.1c-0.6-0.4-1.4-0.3-1.9,0.3
		c-0.4,0.6-0.3,1.4,0.3,1.9c0,0,0,0,0.1,0c3.1,2.2,6.4,4.3,9.7,6.2c0,0,0,0,0,0c0,0,0.1,0,0.1,0.1c0,0,0,0,0,0c0,0,0,0,0.1,0
		c3.1,1.6,7,0.4,8.6-2.7c1.9-3.5,0.3-7.4-2.4-9c0,0,0,0,0,0c-3.4-1.9-6.9-3.7-9.9-5.1l-21.4-9.8
		C55.3,1055.4,55.1,1055.4,54.9,1055.4L54.9,1055.4z M52.2,1060c-0.7,0.1-1.3,0.7-1.2,1.4c0,0.4,0.2,0.8,0.6,1l9.6,6.8l2.4,1.7
		c0.6,0.4,1.4,0.3,1.9-0.3c0.4-0.6,0.3-1.4-0.3-1.9c0,0,0,0-0.1,0l-2.4-1.7l-9.6-6.8C52.8,1060.1,52.5,1060,52.2,1060L52.2,1060z"/>
	<path class="st2" d="M54.1,1051.6c-1.3-0.7-2.8-0.5-4.1,0.2c-1.2,0.7-2.3,1.8-3.2,3.2c0,0,0,0,0,0c-0.8,1.5-1.3,3-1.2,4.4
		c0.1,1.4,0.6,2.9,1.9,3.6c1.3,0.7,2.8,0.5,4.1-0.2c1.3-0.7,2.4-1.8,3.2-3.3c0.8-1.5,1.3-3,1.2-4.4
		C56,1053.8,55.4,1052.4,54.1,1051.6C54.1,1051.7,54.1,1051.6,54.1,1051.6L54.1,1051.6z M52.8,1054c0.3,0.2,0.6,0.6,0.6,1.4
		c0,0.8-0.2,1.9-0.9,3c-0.6,1.1-1.5,1.9-2.2,2.2c-0.7,0.4-1.2,0.4-1.5,0.2c-0.3-0.2-0.6-0.6-0.6-1.4c0-0.8,0.2-1.9,0.9-3
		c0.7-1.1,1.5-1.9,2.2-2.3C52,1053.8,52.4,1053.8,52.8,1054L52.8,1054z"/>
	<path class="st2" d="M20.4,1054.5c-0.7,0.2-1.3,0.6-1.6,1.2l-2,3.4c-0.7,1.3-0.3,2.9,1,3.6l12.6,7.3c1.3,0.7,2.9,0.3,3.6-1l2-3.4
		c0.7-1.3,0.3-2.9-1-3.6l-12.6-7.3C21.8,1054.4,21,1054.4,20.4,1054.5L20.4,1054.5z M21.1,1057.1L21.1,1057.1l12.6,7.3l-2,3.4
		c0,0,0,0,0,0l-12.6-7.3L21.1,1057.1z"/>
	<path class="st2" d="M37,1025.9c-0.7,0.2-1.3,0.6-1.6,1.2l-2,3.4c-0.7,1.3-0.3,2.9,1,3.6l12.6,7.3c1.3,0.7,2.9,0.3,3.6-1l2-3.4
		c0.7-1.3,0.3-2.9-1-3.6l-12.6-7.3C38.4,1025.8,37.6,1025.7,37,1025.9L37,1025.9z M37.7,1028.5C37.7,1028.4,37.6,1028.4,37.7,1028.5
		l12.6,7.3l-2,3.4h0l-12.6-7.3L37.7,1028.5L37.7,1028.5z"/>
	<path class="st2" d="M31,1036.2c-0.7,0.2-1.3,0.6-1.6,1.2l-6.6,11.5c-0.7,1.3-0.3,2.9,1,3.6l12.6,7.3c1.3,0.7,2.9,0.3,3.6-1
		l6.6-11.5c0.7-1.3,0.3-2.9-1-3.6l-12.6-7.3C32.4,1036.1,31.7,1036,31,1036.2L31,1036.2z M31.7,1038.8L31.7,1038.8l12.6,7.3
		l-6.6,11.4h0l-12.6-7.3L31.7,1038.8L31.7,1038.8z"/>
	<path class="st31" d="M24.4,1051.4l-2.7,4.6l2.3,1.3l2.7-4.6L24.4,1051.4z"/>
	<path class="st31" d="M34.7,1057.3l-2.7,4.6l2.3,1.3l2.7-4.6L34.7,1057.3z"/>
	<path class="st31" d="M35,1033l-2.7,4.6l2.3,1.3l2.7-4.6C37.3,1034.4,35,1033,35,1033z"/>
	<path class="st31" d="M45.3,1039l-2.7,4.6l2.3,1.3l2.7-4.6L45.3,1039z"/>
	<path class="st2" d="M43.8,1049.6c-1.2,0.3-2.2,1.1-2.8,2.2c-1.3,2.2-0.5,5.1,1.7,6.3c2.2,1.3,5.1,0.5,6.3-1.7
		c1.3-2.2,0.5-5.1-1.7-6.3C46.2,1049.4,45,1049.3,43.8,1049.6L43.8,1049.6z M46,1052.4c1,0.6,1.3,1.7,0.7,2.7
		c-0.6,1-1.8,1.3-2.7,0.7c-1-0.6-1.3-1.7-0.7-2.7S45.1,1051.8,46,1052.4L46,1052.4z"/>
	<path class="st2" d="M11.8,1084.3c-0.7,0-1.3,0.6-1.3,1.3v6.6c0,0.7,0.6,1.3,1.3,1.3h8h4c0.7,0,1.3-0.6,1.3-1.3s-0.6-1.3-1.3-1.3
		c0,0,0,0,0,0h-4h-6.6v-4h29.2v4h-2.7h-4c-0.7,0-1.3,0.6-1.3,1.3c0,0.7,0.6,1.3,1.3,1.3c0,0,0,0,0,0h4h4c0.7,0,1.3-0.6,1.3-1.3v-6.6
		c0-0.7-0.6-1.3-1.3-1.3H11.8z M27.7,1090.9c-0.7,0-1.3,0.6-1.3,1.3c0,0.7,0.6,1.3,1.3,1.3c0,0,0,0,0,0h4c0.7,0,1.3-0.6,1.3-1.3
		c0-0.7-0.6-1.3-1.3-1.3c0,0,0,0,0,0H27.7z"/>
	<path class="st2" d="M19.7,1079c-2.9,0-5.2,2.4-5.2,5.3v1.3c0,1.8,2.7,1.8,2.7,0v-1.3l0,0c0-1.5,1.2-2.7,2.7-2.7h15.9
		c1.5,0,2.7,1.2,2.7,2.7v1.3c0,1.8,2.7,1.8,2.7,0v-1.3c0-2.9-2.4-5.3-5.3-5.3C30.4,1079,25,1079,19.7,1079L19.7,1079z"/>
	<path class="st2" d="M69,1072.3c0,0.7-0.6,1.3-1.3,1.3c0,0,0,0,0,0c-0.7,0-1.3-0.6-1.3-1.3l0,0c0-0.7,0.6-1.3,1.3-1.3c0,0,0,0,0,0
		C68.4,1071,69,1071.6,69,1072.3C69,1072.3,69,1072.3,69,1072.3z"/>
</g>
</svg>
