<?xml version="1.0" encoding="utf-8"?>
<!-- Generator: Adobe Illustrator 24.1.0, SVG Export Plug-In . SVG Version: 6.00 Build 0)  -->
<svg version="1.1" id="Layer_1" xmlns="http://www.w3.org/2000/svg" xmlns:xlink="http://www.w3.org/1999/xlink" x="0px" y="0px"
	 viewBox="0 0 100 80" style="enable-background:new 0 0 100 80;" xml:space="preserve">
<style type="text/css">
	.st0{fill:#20244E;}
	.st1{fill:#E6E6E6;}
	.st2{fill:#B92F00;}
	.st3{fill:#FFFFFF;}
	.st4{fill:none;stroke:#20244E;stroke-width:3;stroke-linejoin:round;stroke-miterlimit:10;}
	.st5{fill:none;stroke:#20244E;stroke-width:3;stroke-linecap:round;stroke-linejoin:round;stroke-miterlimit:10;}
	.st6{fill:#FBB03B;}
</style>
<g>
	<g>
		<g>
			<g>
				<path class="st0" d="M27.4,37.6c9.2,0,16.7-7.5,16.7-16.7c0-2.4-0.5-4.7-1.4-6.8c-0.4-0.8-1.3-1.1-2.1-0.8
					c-0.8,0.4-1.1,1.3-0.8,2.1c0.8,1.8,1.1,3.6,1.1,5.5c0,7.5-6.1,13.4-13.4,13.4S14,28.4,14,20.9S20,7.5,27.4,7.5
					c2.2,0,4.3,0.5,6.1,1.5c0.3,0.4,0.7,0.5,1.1,0.5h48.7v22.8H44.7c-0.9,0-1.6,0.7-1.6,1.6s0.7,1.6,1.6,1.6H85
					c0.9,0,1.6-0.7,1.6-1.6v-26c0-0.9-0.7-1.6-1.6-1.6H35.4c-2.5-1.3-5.2-2-8-2c-9.2,0-16.7,7.5-16.7,16.7S18.2,37.6,27.4,37.6z"/>
				<path class="st0" d="M87.8,52.2c-0.4-0.8-1.3-1.1-2.1-0.8s-1.1,1.3-0.8,2.1c0.8,1.8,1.1,3.6,1.1,5.5c0,7.5-6.1,13.4-13.4,13.4
					s-13.4-6.1-13.4-13.4s6.1-13.4,13.4-13.4c2.3,0,4.6,0.6,6.6,1.7c0.8,0.4,1.8,0.2,2.2-0.6c0.4-0.8,0.2-1.8-0.6-2.2
					c-2.5-1.4-5.3-2.1-8.2-2.1c-9.2,0-16.7,7.5-16.7,16.7c0,4.4,1.8,8.4,4.6,11.4H16.9V47.7h37.8c0.9,0,1.6-0.7,1.6-1.6
					s-0.7-1.6-1.6-1.6H15.3c-0.9,0-1.6,0.7-1.6,1.6v26c0,0.9,0.7,1.6,1.6,1.6h48.8c0.1,0,0.3-0.1,0.4-0.1c2.4,1.3,5.2,2.1,8.1,2.1
					c9.2,0,16.7-7.5,16.7-16.7C89.2,56.6,88.8,54.4,87.8,52.2z"/>
				<path class="st0" d="M23.7,54.4h16.2c0.9,0,1.6-0.7,1.6-1.6s-0.7-1.6-1.6-1.6H23.7c-0.9,0-1.6,0.7-1.6,1.6S22.9,54.4,23.7,54.4z
					"/>
				<path class="st0" d="M45.3,54.4c0.9,0,1.6-0.7,1.6-1.6s-0.7-1.6-1.6-1.6h-0.6c-0.9,0-1.6,0.7-1.6,1.6s0.7,1.6,1.6,1.6H45.3z"/>
				<path class="st0" d="M23.7,60.4h8.4c0.9,0,1.6-0.7,1.6-1.6s-0.7-1.6-1.6-1.6h-8.4c-0.9,0-1.6,0.7-1.6,1.6
					C22.2,59.7,22.9,60.4,23.7,60.4z"/>
				<path class="st0" d="M50.5,58.7c0-0.9-0.7-1.6-1.6-1.6H36.7c-0.9,0-1.6,0.7-1.6,1.6s0.7,1.6,1.6,1.6h12.2
					C49.7,60.4,50.5,59.7,50.5,58.7z"/>
				<path class="st0" d="M24.1,66.9h17.1c0.9,0,1.6-0.7,1.6-1.6c0-0.9-0.7-1.6-1.6-1.6H24.1c-0.9,0-1.6,0.7-1.6,1.6
					C22.5,66.2,23.2,66.9,24.1,66.9z"/>
				<path class="st0" d="M47.6,63.8h-1.5c-0.9,0-1.6,0.7-1.6,1.6c0,0.9,0.7,1.6,1.6,1.6h1.5c0.9,0,1.6-0.7,1.6-1.6
					C49.2,64.5,48.5,63.8,47.6,63.8z"/>
				<path class="st0" d="M66.4,13H48.9c-0.9,0-1.6,0.7-1.6,1.6c0,0.9,0.7,1.6,1.6,1.6h17.6c0.9,0,1.6-0.7,1.6-1.6
					C68,13.7,67.3,13,66.4,13z"/>
				<path class="st0" d="M72.7,16.2c0.9,0,1.6-0.7,1.6-1.6c0-0.9-0.7-1.6-1.6-1.6H72c-0.9,0-1.6,0.7-1.6,1.6c0,0.9,0.7,1.6,1.6,1.6
					H72.7z"/>
				<path class="st0" d="M48.9,22.3h4.4c0.9,0,1.6-0.7,1.6-1.6s-0.7-1.6-1.6-1.6h-4.4c-0.9,0-1.6,0.7-1.6,1.6S48,22.3,48.9,22.3z"/>
				<path class="st0" d="M57.1,20.6c0,0.9,0.7,1.6,1.6,1.6h17.8c0.9,0,1.6-0.7,1.6-1.6s-0.7-1.6-1.6-1.6H58.8
					C57.9,19.1,57.1,19.8,57.1,20.6z"/>
				<path class="st0" d="M49.3,25.6c-0.9,0-1.6,0.7-1.6,1.6s0.7,1.6,1.6,1.6h17.1c0.9,0,1.6-0.7,1.6-1.6s-0.7-1.6-1.6-1.6H49.3z"/>
				<path class="st0" d="M75.2,25.6h-3.1c-0.9,0-1.6,0.7-1.6,1.6s0.7,1.6,1.6,1.6h3.1c0.9,0,1.6-0.7,1.6-1.6S76.1,25.6,75.2,25.6z"
					/>
			</g>
		</g>
		<circle class="st0" cx="27.2" cy="27.2" r="1.5"/>
		<path class="st0" d="M32.4,19.2c0-2.8-2.3-5.1-5.1-5.1s-5.1,2.3-5.1,5.1c0,0.9,0.7,1.6,1.6,1.6s1.6-0.7,1.6-1.6
			c0-1.1,0.9-1.9,1.9-1.9s1.9,0.9,1.9,1.9s-0.9,1.9-1.9,1.9c-0.9,0-1.6,0.7-1.6,1.6s0.7,1.6,1.6,1.6C30.1,24.3,32.4,22,32.4,19.2z"
			/>
		<g>
			<path class="st0" d="M71,65.8l-5.5-5.5c-0.6-0.6-0.6-1.5,0-2.1c0.6-0.6,1.5-0.6,2.1,0l3.4,3.4l8.2-8.2c0.6-0.6,1.5-0.6,2.1,0
				c0.6,0.6,0.6,1.5,0,2.1L71,65.8z"/>
		</g>
	</g>
</g>
</svg>
