<?xml version="1.0" encoding="utf-8"?>
<!-- Generator: Adobe Illustrator 24.1.0, SVG Export Plug-In . SVG Version: 6.00 Build 0)  -->
<svg version="1.1" id="Layer_1" xmlns="http://www.w3.org/2000/svg" xmlns:xlink="http://www.w3.org/1999/xlink" x="0px" y="0px"
	 viewBox="0 0 100 80" style="enable-background:new 0 0 100 80;" xml:space="preserve">
<style type="text/css">
	.st0{fill:#20244E;}
	.st1{fill:#E6E6E6;}
	.st2{fill:#B92F00;}
	.st3{fill:#FFFFFF;}
	.st4{fill:none;stroke:#20244E;stroke-width:3;stroke-linejoin:round;stroke-miterlimit:10;}
	.st5{fill:none;stroke:#20244E;stroke-width:3;stroke-linecap:round;stroke-linejoin:round;stroke-miterlimit:10;}
	.st6{fill:#FBB03B;}
</style>
<g>
	<g>
		<path class="st0" d="M53,80c-0.2,0-0.5-0.1-0.7-0.2L9.2,56.9c-0.5-0.2-0.8-0.7-0.8-1.3V27.9c0-0.5,0.2-0.9,0.6-1.2l37-26.5
			c0.4-0.3,1-0.4,1.5-0.1l43.1,23.1c0.5,0.2,0.8,0.7,0.8,1.3v27.7c0,0.5-0.2,0.9-0.6,1.2l-37,26.3C53.6,79.9,53.3,80,53,80z
			 M11.4,54.8l41.6,22.1l35.7-25.3V25.4L47.1,3.1L11.4,28.6V54.8z"/>
	</g>
	<g>
		<path class="st0" d="M53,54.8c-0.2,0-0.5-0.1-0.7-0.2L15.6,35.1c-0.7-0.4-1-1.2-0.6-1.9c0.4-0.7,1.2-1,1.9-0.6l36,19.1L82,31.1
			c0.6-0.5,1.5-0.3,2,0.3c0.5,0.6,0.3,1.5-0.3,2L53.9,54.5C53.6,54.7,53.3,54.8,53,54.8z"/>
	</g>
	<g>
		<path class="st0" d="M53,73.3c-0.8,0-1.4-0.6-1.4-1.4V53.4c0-0.8,0.6-1.4,1.4-1.4c0.8,0,1.4,0.6,1.4,1.4v18.4
			C54.5,72.6,53.8,73.3,53,73.3z"/>
	</g>
	<g>
		<g>
			<path class="st0" d="M29.8,28.3c-5.2,0-9.3-2.8-9.3-6.4s4.1-6.4,9.3-6.4s9.3,2.8,9.3,6.4S35,28.3,29.8,28.3z M29.8,18.4
				c-3.8,0-6.5,1.9-6.5,3.6c0,1.7,2.7,3.6,6.5,3.6c3.8,0,6.5-1.9,6.5-3.6C36.3,20.2,33.6,18.4,29.8,18.4z"/>
		</g>
		<g>
			<path class="st0" d="M29.8,33.7c-5.2,0-9.3-2.8-9.3-6.4v-5.4c0-0.8,0.6-1.4,1.4-1.4s1.4,0.6,1.4,1.4v5.4c0,1.7,2.7,3.6,6.5,3.6
				c3.8,0,6.5-1.9,6.5-3.6v-5.4c0-0.8,0.6-1.4,1.4-1.4s1.4,0.6,1.4,1.4v5.4C39.1,30.9,35,33.7,29.8,33.7z"/>
		</g>
	</g>
	<g>
		<g>
			<path class="st0" d="M47.9,15.4c-5.2,0-9.3-2.8-9.3-6.4s4.1-6.4,9.3-6.4c5.2,0,9.3,2.8,9.3,6.4S53.2,15.4,47.9,15.4z M47.9,5.4
				c-3.8,0-6.5,1.9-6.5,3.6s2.7,3.6,6.5,3.6c3.8,0,6.5-1.9,6.5-3.6S51.8,5.4,47.9,5.4z"/>
		</g>
		<g>
			<path class="st0" d="M47.9,20.8c-5.2,0-9.3-2.8-9.3-6.4V9c0-0.8,0.6-1.4,1.4-1.4c0.8,0,1.4,0.6,1.4,1.4v5.4
				c0,1.7,2.7,3.6,6.5,3.6c3.8,0,6.5-1.9,6.5-3.6V9c0-0.8,0.6-1.4,1.4-1.4s1.4,0.6,1.4,1.4v5.4C57.3,18,53.2,20.8,47.9,20.8z"/>
		</g>
	</g>
	<g>
		<g>
			<path class="st0" d="M51,39.7c-5.2,0-9.3-2.8-9.3-6.4c0-3.6,4.1-6.4,9.3-6.4c5.2,0,9.3,2.8,9.3,6.4C60.3,36.9,56.2,39.7,51,39.7z
				 M51,29.7c-3.8,0-6.5,1.9-6.5,3.6c0,1.7,2.7,3.6,6.5,3.6c3.8,0,6.5-1.9,6.5-3.6C57.4,31.6,54.8,29.7,51,29.7z"/>
		</g>
		<g>
			<path class="st0" d="M51,45.1c-5.2,0-9.3-2.8-9.3-6.4v-5.4c0-0.8,0.6-1.4,1.4-1.4c0.8,0,1.4,0.6,1.4,1.4v5.4
				c0,1.7,2.7,3.6,6.5,3.6c3.8,0,6.5-1.9,6.5-3.6v-5.4c0-0.8,0.6-1.4,1.4-1.4c0.8,0,1.4,0.6,1.4,1.4v5.4
				C60.3,42.3,56.2,45.1,51,45.1z"/>
		</g>
	</g>
	<g>
		<g>
			<path class="st0" d="M69.1,26.8c-5.2,0-9.3-2.8-9.3-6.4c0-3.6,4.1-6.4,9.3-6.4s9.3,2.8,9.3,6.4C78.4,24,74.3,26.8,69.1,26.8z
				 M69.1,16.8c-3.8,0-6.5,1.9-6.5,3.6c0,1.7,2.7,3.6,6.5,3.6s6.5-1.9,6.5-3.6C75.6,18.7,72.9,16.8,69.1,16.8z"/>
		</g>
		<g>
			<path class="st0" d="M69.1,32.2c-5.2,0-9.3-2.8-9.3-6.4v-5.4c0-0.8,0.6-1.4,1.4-1.4c0.8,0,1.4,0.6,1.4,1.4v5.4
				c0,1.7,2.7,3.6,6.5,3.6s6.5-1.9,6.5-3.6v-5.4c0-0.8,0.6-1.4,1.4-1.4s1.4,0.6,1.4,1.4v5.4C78.4,29.3,74.3,32.2,69.1,32.2z"/>
		</g>
	</g>
</g>
</svg>
